<svg width="38" height="39" viewBox="0 0 38 39" fill="none" xmlns="http://www.w3.org/2000/svg">
<path d="M9.55671 29.0798C9.44536 29.0796 9.33643 29.1123 9.2435 29.1736C9.1488 29.2362 9.06211 29.3443 9.06211 29.4827C9.06211 29.5011 9.05142 29.542 9.08705 29.6133L9.07785 29.5907L10.9808 35.7648C11.015 35.8806 11.0966 35.9691 11.1886 36.0201C11.2807 36.0712 11.381 36.0899 11.479 36.0899C11.6868 36.0899 11.9154 35.9907 11.9851 35.7669V35.7663L13.8863 29.569V29.5465C13.8863 29.578 13.8955 29.5598 13.8955 29.4922C13.8955 29.3511 13.8056 29.2475 13.7094 29.1825C13.6132 29.1163 13.4993 29.0806 13.3825 29.0798C13.2371 29.0798 13.0702 29.168 13.0144 29.336L13.0132 29.3378L11.4784 34.4601L9.9376 29.347C9.91474 29.2555 9.85328 29.1792 9.78174 29.1365C9.71019 29.0937 9.63211 29.0798 9.55671 29.0798ZM24.7137 29.398C24.4108 29.398 24.1555 29.6302 24.1555 29.9205C24.1555 30.2109 24.4067 30.4511 24.7137 30.4511C25.0147 30.4511 25.254 30.2064 25.254 29.9205C25.254 29.6347 25.0105 29.398 24.7137 29.398ZM20.2519 31.3746C19.2164 31.3746 18.3635 32.2035 18.3635 33.1995V34.2202C18.3635 34.778 18.5856 35.2563 18.9632 35.5861C19.3402 35.9162 19.8669 36.0988 20.4704 36.0988C20.9163 36.0988 21.28 35.9988 21.5398 35.8634C21.6698 35.7954 21.7743 35.7194 21.8512 35.6366C21.9284 35.5535 21.9848 35.4629 21.9848 35.3495C21.9848 35.2456 21.945 35.1553 21.88 35.0743C21.8153 34.9932 21.7131 34.9187 21.5813 34.9187C21.4863 34.9187 21.4133 34.9588 21.3501 34.9977C21.2868 35.0363 21.2275 35.0793 21.1559 35.1206C21.0128 35.2028 20.8234 35.283 20.4885 35.283C20.1157 35.283 19.8051 35.1767 19.5908 34.998C19.377 34.8199 19.2523 34.572 19.2523 34.2472V34.0584H21.1627C21.3667 34.0584 21.5932 34.0584 21.7891 33.9337C21.9851 33.8084 22.1038 33.5596 22.1038 33.1817C22.1038 32.1337 21.2298 31.3749 20.2519 31.3749V31.3746ZM27.4321 31.3746C26.8817 31.3746 26.4768 31.5528 26.2167 31.8205C25.9567 32.0883 25.8445 32.4369 25.8445 32.7622C25.8445 33.1773 26.0122 33.4747 26.2521 33.665C26.4922 33.8559 26.7909 33.9518 27.075 34.0373C27.3591 34.1231 27.631 34.1991 27.8136 34.3116C27.9962 34.4244 28.0942 34.5459 28.0942 34.8027C28.0942 34.9407 28.0526 35.0505 27.9407 35.1402C27.8285 35.2302 27.629 35.3008 27.3045 35.3008C26.9206 35.3008 26.706 35.2061 26.5495 35.1096C26.4715 35.0612 26.4085 35.0111 26.3438 34.9662C26.2791 34.9214 26.2055 34.873 26.1024 34.873C25.9786 34.873 25.8872 34.9493 25.8317 35.0283C25.7754 35.1057 25.7448 35.1988 25.7441 35.2946C25.7441 35.4148 25.8029 35.5205 25.8857 35.6122C25.9688 35.704 26.0808 35.7856 26.2185 35.8569C26.4937 35.9994 26.8728 36.0988 27.3229 36.0988C27.8118 36.0988 28.2138 35.9795 28.4985 35.7479C28.7829 35.5163 28.9379 35.1723 28.9379 34.7756C28.9379 34.3274 28.7749 34.0052 28.535 33.7921C28.2949 33.5792 27.9918 33.4694 27.7035 33.3809C27.4152 33.2927 27.1376 33.2239 26.9521 33.1271C26.7663 33.0303 26.679 32.941 26.679 32.7352C26.679 32.6239 26.7235 32.4838 26.8366 32.373C26.9497 32.2629 27.1344 32.1732 27.4413 32.1732C27.6866 32.1732 27.8688 32.2296 28.0149 32.289C28.0879 32.319 28.1515 32.3502 28.2114 32.3763C28.2717 32.4021 28.3272 32.4277 28.4068 32.4277C28.5508 32.4277 28.6496 32.3327 28.7084 32.2445C28.7672 32.1563 28.801 32.0693 28.801 31.9696C28.801 31.8449 28.7235 31.7564 28.6378 31.6905C28.552 31.6246 28.4439 31.5712 28.3192 31.5255C28.0698 31.434 27.7516 31.3749 27.4321 31.3749V31.3746ZM14.4121 31.4299C14.1713 31.4299 13.9632 31.581 13.9632 31.8057V34.238C13.9632 35.2248 14.8022 36.0988 15.8424 36.0988C16.8655 36.0988 17.7217 35.2349 17.7217 34.238V31.7968C17.7217 31.6846 17.6599 31.5869 17.5786 31.5249C17.4972 31.4631 17.3939 31.4299 17.2817 31.4299C17.1695 31.4299 17.0656 31.4625 16.9824 31.5234C16.8993 31.5839 16.8328 31.6807 16.8328 31.7968V34.238C16.8328 34.7552 16.3822 35.2557 15.8424 35.2557C15.2941 35.2557 14.8524 34.7462 14.8524 34.238V31.8057C14.8524 31.689 14.7885 31.5994 14.7099 31.5355C14.6312 31.4717 14.5273 31.4299 14.4121 31.4299V31.4299ZM24.714 31.4299C24.6011 31.4299 24.4972 31.459 24.4141 31.5216C24.331 31.5839 24.2746 31.6872 24.2746 31.7968V36.2784C24.2746 36.6148 24.2508 36.8968 24.1769 37.0678C24.1033 37.2385 24.016 37.3142 23.7672 37.3142C23.5472 37.3142 23.3635 37.5063 23.3635 37.7364C23.3635 37.8317 23.3943 37.9368 23.4724 38.0184C23.5505 38.1 23.6719 38.1484 23.8123 38.1484C24.2856 38.1484 24.6478 37.9385 24.8633 37.5977C25.0794 37.2566 25.1631 36.8006 25.1631 36.2784V31.7968C25.1631 31.6801 25.0966 31.5786 25.0117 31.5186C24.9241 31.4589 24.82 31.4279 24.714 31.4299V31.4299ZM20.2427 32.164C20.8338 32.164 21.2331 32.6589 21.2331 33.163C21.2331 33.2179 21.2272 33.2539 21.2212 33.2702C21.2159 33.2865 21.2165 33.2844 21.2082 33.2901C21.1918 33.3008 21.1004 33.3242 20.9258 33.3242H19.2523V33.1265C19.2523 32.599 19.6932 32.164 20.2427 32.164V32.164ZM23.0666 34.9457C22.7436 34.9457 22.499 35.2129 22.499 35.5223C22.499 35.8192 22.74 36.0899 23.0666 36.0899C23.3759 36.0899 23.6247 35.8275 23.6247 35.5223C23.6247 35.2055 23.3718 34.946 23.0666 34.946V34.9457Z" fill="#35495E"/>
<path d="M9.32306 0.116966L15.1801 0.118748L19.0086 6.47395L22.8237 0.119638L28.6758 0.118154L19.038 16.8358L9.32306 0.116966Z" fill="#35495E"/>
<path d="M2.9352 0.1615L9.31802 0.118156L19.0324 16.8367L28.6707 0.119047L35.0645 0.125875L19.0312 27.6414L2.9352 0.1615Z" fill="#41B883"/>
</svg>
