<svg width="38" height="38" viewBox="0 0 38 38" fill="none" xmlns="http://www.w3.org/2000/svg">
<path d="M3.92677 16.647C2.87939 16.647 2.22656 17.1748 1.9668 18.2207C2.35986 17.6943 2.82031 17.5005 3.33984 17.6338C3.63672 17.708 3.85255 17.9238 4.08886 18.1685C4.47509 18.5615 4.92041 19.0151 5.89356 19.0151C6.93945 19.0151 7.59228 18.4873 7.85205 17.4414C7.45898 17.9678 6.99853 18.1616 6.479 18.0283C6.18212 17.9541 5.96778 17.7383 5.72998 17.4937C5.34375 17.1006 4.89844 16.647 3.92677 16.647V16.647ZM1.95997 19C0.912594 19 0.259766 19.5264 0 20.5734C0.393063 20.0459 0.853516 19.8535 1.37305 19.9868C1.66992 20.061 1.88575 20.2769 2.12206 20.5215C2.5083 20.9145 2.95361 21.3682 3.92677 21.3682C4.97266 21.3682 5.62548 20.8403 5.88525 19.7944C5.49219 20.3208 5.03173 20.5147 4.5122 20.3799C4.21533 20.3057 4.00098 20.0913 3.76319 19.8467C3.38378 19.4521 2.93847 19 1.95997 19Z" fill="url(#paint0_linear_104_45)"/>
<path d="M11.7788 18.6289H11.0957V19.958C11.0957 20.314 11.3252 20.3057 11.7785 20.2837V20.8184C10.8582 20.9297 10.4951 20.6767 10.4951 19.958V18.6289H9.98925V18.0571H10.4951V17.3149L11.0889 17.1377V18.0571H11.7705V18.6289H11.7788ZM14.3913 18.0571H14.9851V20.8184H14.3913V20.417C14.1826 20.707 13.8569 20.8857 13.4265 20.8857C12.6763 20.8857 12.0537 20.2466 12.0537 19.4302C12.0537 18.6069 12.6763 17.9761 13.4268 17.9761C13.8569 17.9761 14.1826 18.1533 14.3916 18.4434L14.3913 18.0571ZM13.5146 20.3208C14.0122 20.3208 14.3916 19.9497 14.3916 19.4385C14.3916 18.9258 14.0122 18.5547 13.5146 18.5547C13.0186 18.5547 12.6392 18.9258 12.6392 19.4385C12.6475 19.9497 13.0186 20.3208 13.5149 20.3208H13.5146ZM15.979 17.6421C15.7715 17.6421 15.6011 17.4634 15.6011 17.2627C15.6011 17.0552 15.7715 16.8848 15.979 16.8848C16.1868 16.8848 16.3584 17.0552 16.3584 17.2627C16.3652 17.4634 16.1865 17.6421 15.979 17.6421ZM15.6821 20.8184V18.0574H16.2759V20.8184H15.6821ZM16.9658 20.8184V16.7886H17.5596V20.8184H16.9658ZM21.4424 18.0574H22.0732L21.2046 20.8184H20.6177L20.0459 18.9561L19.4673 20.8184H18.8818L18.0132 18.0574H18.6437L19.1781 19.9648L19.757 18.0571H20.3288L20.8991 19.9648L21.4424 18.0574ZM22.8071 17.6418C22.5996 17.6418 22.4292 17.4637 22.4292 17.2627C22.4292 17.0552 22.5996 16.8848 22.8071 16.8848C23.0149 16.8848 23.1865 17.0552 23.1865 17.2627C23.1934 17.4634 23.023 17.6421 22.8071 17.6421V17.6418ZM22.5102 20.8184V18.0574H23.104V20.8184H22.5102ZM25.2495 17.9832C25.8652 17.9832 26.3105 18.4063 26.3105 19.1182V20.8184H25.7168V19.1855C25.7168 18.7622 25.4722 18.5479 25.1011 18.5479C24.708 18.5479 24.396 18.7773 24.396 19.3408V20.8252H23.8022V18.0654H24.396V18.4214C24.5815 18.1245 24.8784 17.9829 25.2495 17.9829V17.9832ZM29.146 16.9522H29.7397V20.8184H29.146V20.417C28.9382 20.707 28.6113 20.8857 28.1812 20.8857C27.4307 20.8857 26.8081 20.2466 26.8081 19.4302C26.8081 18.6069 27.4307 17.9761 28.1812 17.9761C28.6113 17.9761 28.9382 18.1533 29.146 18.4434V16.9522ZM28.2702 20.3208C28.7666 20.3208 29.146 19.9497 29.146 19.4385C29.146 18.9258 28.7666 18.5547 28.2702 18.5547C27.773 18.5547 27.3935 18.9258 27.3935 19.4385C27.3935 19.9497 27.773 20.3208 28.2705 20.3208H28.2702ZM31.7353 20.8926C30.9053 20.8926 30.2744 20.2549 30.2744 19.4385C30.2744 18.6138 30.897 17.9829 31.7353 17.9829C32.2783 17.9829 32.7456 18.2649 32.9683 18.6963L32.4556 18.9932C32.3374 18.7334 32.0625 18.5698 31.7285 18.5698C31.2393 18.5698 30.875 18.9409 30.875 19.4385C30.875 19.9346 31.2461 20.3057 31.7285 20.3057C32.0625 20.3057 32.3291 20.1352 32.4639 19.8838L32.9751 20.1724C32.7524 20.6108 32.2783 20.8926 31.7353 20.8926ZM33.9702 18.8145C33.9702 19.3191 35.4546 19.0151 35.4546 20.0391C35.4546 20.5889 34.9722 20.8926 34.3784 20.8926C33.8286 20.8926 33.4284 20.6396 33.25 20.2466L33.7627 19.9497C33.8506 20.2026 34.0732 20.3511 34.3784 20.3511C34.645 20.3511 34.8457 20.2617 34.8457 20.0391C34.8457 19.5498 33.3613 19.8232 33.3613 18.8367C33.3613 18.3172 33.8066 17.9912 34.3701 17.9912C34.8237 17.9912 35.2017 18.1987 35.3955 18.5615L34.8896 18.8447C34.7934 18.6289 34.6011 18.5327 34.3701 18.5327C34.1558 18.5244 33.9702 18.6218 33.9702 18.8145ZM36.5156 18.8145C36.5156 19.3191 38 19.0151 38 20.0391C38 20.5889 37.5176 20.8926 36.9238 20.8926C36.374 20.8926 35.9738 20.6396 35.7957 20.2466L36.3081 19.9497C36.3972 20.2026 36.6198 20.3511 36.9238 20.3511C37.1904 20.3511 37.3911 20.2617 37.3911 20.0391C37.3911 19.5498 35.9067 19.8232 35.9067 18.8367C35.9067 18.3172 36.352 17.9912 36.917 17.9912C37.3691 17.9912 37.7471 18.1987 37.9409 18.5615L37.4362 18.8447C37.3389 18.6289 37.1465 18.5327 36.9167 18.5327C36.7012 18.5244 36.5156 18.6218 36.5156 18.8145Z" fill="#2D3748"/>
<defs>
<linearGradient id="paint0_linear_104_45" x1="-0.210091" y1="18.1437" x2="6.5742" y2="22.0553" gradientUnits="userSpaceOnUse">
<stop stop-color="#2298BD"/>
<stop offset="1" stop-color="#0ED7B5"/>
</linearGradient>
</defs>
</svg>
