<svg width="38" height="38" viewBox="0 0 38 38" fill="none" xmlns="http://www.w3.org/2000/svg">
<path d="M33.9402 23.9724C33.8541 23.9724 33.7686 23.9498 33.6932 23.9059L32.9065 23.4404C32.789 23.3748 32.8462 23.3513 32.8851 23.3379C33.0419 23.2833 33.0737 23.2705 33.2408 23.1761C33.2583 23.1663 33.2812 23.1699 33.2993 23.1806L33.9034 23.5395C33.9147 23.5455 33.9272 23.5487 33.9399 23.5487C33.9527 23.5487 33.9652 23.5455 33.9765 23.5395L36.3328 22.1795C36.3438 22.173 36.353 22.1637 36.3594 22.1525C36.3657 22.1413 36.369 22.1286 36.369 22.1157V19.3963C36.369 19.3833 36.3656 19.3704 36.3592 19.359C36.3528 19.3476 36.3436 19.3381 36.3325 19.3313L33.977 17.9725C33.9659 17.9664 33.9534 17.9632 33.9407 17.9632C33.928 17.9632 33.9155 17.9664 33.9043 17.9725L31.5492 19.3316C31.538 19.3384 31.5288 19.3478 31.5223 19.3592C31.5158 19.3705 31.5123 19.3833 31.5121 19.3963V22.1157C31.5121 22.1418 31.5266 22.1665 31.5492 22.1786L32.1946 22.5518C32.5449 22.7267 32.7596 22.5206 32.7596 22.3134V19.6282C32.7596 19.5905 32.7901 19.5605 32.8278 19.5605H33.1268C33.1639 19.5605 33.1948 19.5905 33.1948 19.6282V22.3134C33.1948 22.7807 32.9404 23.0488 32.4971 23.0488C32.3609 23.0488 32.2537 23.0488 31.9544 22.9015L31.3366 22.5459C31.2615 22.5021 31.1991 22.4393 31.1558 22.3639C31.1124 22.2885 31.0896 22.203 31.0896 22.116V19.3966C31.0896 19.22 31.1837 19.0552 31.3366 18.9673L33.6929 17.6056C33.7689 17.5642 33.8539 17.5426 33.9404 17.5426C34.0268 17.5426 34.1119 17.5642 34.1878 17.6056L36.5441 18.9673C36.6967 19.0555 36.7914 19.2203 36.7914 19.3966V22.116C36.7913 22.203 36.7684 22.2884 36.725 22.3639C36.6816 22.4393 36.6193 22.502 36.5441 22.5459L34.1878 23.9062C34.1126 23.9498 34.0272 23.9726 33.9402 23.9724ZM34.6685 22.0988C33.6368 22.0988 33.421 21.6253 33.421 21.2283C33.4211 21.2103 33.4283 21.193 33.4411 21.1803C33.4539 21.1675 33.4712 21.1604 33.4893 21.1604H33.7939C33.8102 21.1603 33.826 21.1661 33.8384 21.1766C33.8508 21.1872 33.859 21.2019 33.8616 21.218C33.9073 21.5282 34.0447 21.6846 34.6685 21.6846C35.1645 21.6846 35.3759 21.5724 35.3759 21.3088C35.3759 21.1568 35.316 21.0443 34.5447 20.9686C33.8999 20.9047 33.5012 20.7625 33.5012 20.2463C33.5012 19.771 33.9019 19.4872 34.5735 19.4872C35.3284 19.4872 35.7019 19.7493 35.7491 20.3116C35.7498 20.3211 35.7486 20.3306 35.7456 20.3396C35.7425 20.3485 35.7376 20.3568 35.7313 20.3638C35.7248 20.3706 35.7171 20.376 35.7085 20.3797C35.7 20.3834 35.6907 20.3854 35.6814 20.3855H35.3753C35.3599 20.3855 35.3449 20.3803 35.3329 20.3706C35.3208 20.3609 35.3124 20.3475 35.3091 20.3324C35.2355 20.0058 35.0574 19.9016 34.5732 19.9016C34.0314 19.9016 33.9684 20.0907 33.9684 20.2317C33.9684 20.403 34.0427 20.4529 34.7745 20.5497C35.4985 20.6456 35.8426 20.781 35.8426 21.2901C35.8429 21.8046 35.4148 22.0988 34.6685 22.0988" fill="#83CD29"/>
<path d="M29.0884 20.3152C29.1813 20.2608 29.2386 20.1617 29.2386 20.0539V19.3551C29.2386 19.2476 29.1816 19.1484 29.0884 19.0941L26.6053 17.6525C26.5594 17.6258 26.5073 17.6117 26.4542 17.6116C26.4011 17.6115 26.3489 17.6254 26.3028 17.6519L23.8043 19.0944C23.7585 19.1209 23.7205 19.159 23.694 19.2049C23.6675 19.2507 23.6536 19.3027 23.6535 19.3557V22.2401C23.6535 22.3485 23.7117 22.4488 23.8061 22.5025L26.2889 23.9171C26.3803 23.9697 26.4925 23.97 26.5849 23.9189L28.0865 23.0841C28.1098 23.0711 28.1293 23.0522 28.143 23.0292C28.1566 23.0062 28.1639 22.98 28.1641 22.9533C28.1643 22.9265 28.1573 22.9002 28.144 22.8771C28.1307 22.8539 28.1114 22.8347 28.0882 22.8214L25.5743 21.3786C25.5512 21.3654 25.5321 21.3464 25.5187 21.3235C25.5054 21.3005 25.4983 21.2745 25.4983 21.2479V20.3437C25.4983 20.2896 25.5271 20.24 25.5737 20.2133L26.3566 19.7621C26.3794 19.7488 26.4054 19.7418 26.4318 19.7418C26.4583 19.7418 26.4842 19.7488 26.5071 19.7621L27.2899 20.2133C27.3129 20.2265 27.332 20.2455 27.3453 20.2683C27.3586 20.2912 27.3656 20.3172 27.3656 20.3437V21.055C27.3655 21.0816 27.3724 21.1077 27.3856 21.1308C27.3989 21.1539 27.418 21.173 27.441 21.1863C27.4641 21.1996 27.4902 21.2065 27.5168 21.2064C27.5434 21.2062 27.5695 21.1991 27.5925 21.1856L29.0884 20.3152" fill="#404137"/>
<path d="M26.4171 20.1798C26.426 20.1748 26.4359 20.1722 26.4461 20.1722C26.4562 20.1722 26.4662 20.1748 26.475 20.1798L26.9545 20.4568C26.9723 20.4672 26.9833 20.4865 26.9833 20.5069V21.0606C26.9833 21.0814 26.9723 21.1004 26.9545 21.1108L26.475 21.3875C26.4662 21.3926 26.4562 21.3953 26.4461 21.3953C26.4359 21.3953 26.4259 21.3926 26.4171 21.3875L25.938 21.1108C25.9291 21.1057 25.9218 21.0984 25.9166 21.0896C25.9115 21.0808 25.9089 21.0708 25.9089 21.0606V20.5069C25.9089 20.4865 25.9199 20.4672 25.938 20.4568L26.4171 20.1798Z" fill="#83CD29"/>
<path d="M19.9153 21.3317C19.9153 21.3584 19.901 21.3833 19.8776 21.397L19.0196 21.8916C19.0082 21.8983 18.9951 21.9018 18.9819 21.9018C18.9686 21.9018 18.9556 21.8983 18.9442 21.8916L18.0862 21.397C18.0748 21.3903 18.0653 21.3808 18.0587 21.3693C18.052 21.3579 18.0485 21.3449 18.0485 21.3317V20.3407C18.0485 20.314 18.0631 20.2887 18.0862 20.2751L18.9442 19.7799C18.9556 19.773 18.9687 19.7694 18.982 19.7694C18.9954 19.7694 19.0085 19.773 19.0199 19.7799L19.8782 20.2751C19.8895 20.2818 19.899 20.2915 19.9055 20.303C19.9121 20.3145 19.9155 20.3275 19.9156 20.3407V21.3317H19.9153ZM20.1471 13.9941C20.1241 13.9815 20.0982 13.9751 20.072 13.9755C20.0458 13.9759 20.0202 13.9831 19.9976 13.9964C19.975 14.0097 19.9562 14.0286 19.9431 14.0513C19.9299 14.074 19.9229 14.0997 19.9227 14.1259V17.96C19.9226 17.9785 19.9177 17.9967 19.9085 18.0127C19.8993 18.0288 19.8861 18.0421 19.8701 18.0515C19.854 18.0607 19.8358 18.0655 19.8173 18.0655C19.7988 18.0655 19.7805 18.0607 19.7645 18.0515L19.1386 17.6908C19.0928 17.6644 19.0409 17.6505 18.988 17.6505C18.9351 17.6505 18.8831 17.6644 18.8373 17.6908L16.3382 19.133C16.2923 19.1595 16.2542 19.1976 16.2276 19.2435C16.2011 19.2894 16.1871 19.3415 16.1871 19.3945V22.2799C16.1871 22.3876 16.2447 22.4871 16.3379 22.5414L18.837 23.9845C18.9302 24.0386 19.0454 24.0386 19.1389 23.9845L21.6386 22.5414C21.6844 22.5148 21.7225 22.4767 21.749 22.4308C21.7754 22.3849 21.7894 22.3329 21.7894 22.2799V15.0875C21.7894 14.9782 21.7301 14.8773 21.6348 14.8239L20.1471 13.9941Z" fill="#404137"/>
<path d="M11.3519 17.6365C11.3977 17.6099 11.4498 17.596 11.5027 17.596C11.5557 17.596 11.6077 17.6099 11.6535 17.6365L14.1526 19.0784C14.2458 19.1324 14.3034 19.2322 14.3034 19.3399V22.2261C14.3034 22.3339 14.2458 22.4337 14.1526 22.4877L11.6538 23.9308C11.6079 23.9572 11.5558 23.9711 11.5029 23.9711C11.4499 23.9711 11.3978 23.9572 11.3519 23.9308L8.8537 22.4877C8.80788 22.4611 8.76984 22.4229 8.74337 22.3771C8.71691 22.3312 8.70295 22.2791 8.70289 22.2261V19.3396C8.70289 19.2322 8.76048 19.1324 8.8537 19.0784L11.3519 17.6365" fill="#83CD29"/>
<path d="M6.80734 19.3159C6.80734 19.2072 6.75034 19.1075 6.65653 19.0537L4.15833 17.616C4.11637 17.5916 4.06905 17.5781 4.02058 17.5765H3.99475C3.94628 17.5781 3.89897 17.5917 3.857 17.616L1.3585 19.0537C1.31254 19.0803 1.27438 19.1186 1.24786 19.1646C1.22133 19.2106 1.20738 19.2628 1.20739 19.3159L1.21273 23.1871C1.21273 23.2412 1.24094 23.2913 1.28814 23.3175C1.31074 23.3312 1.33667 23.3384 1.3631 23.3384C1.38953 23.3384 1.41546 23.3312 1.43806 23.3175L2.92244 22.4672C3.01625 22.4114 3.07355 22.3131 3.07355 22.2054V20.3968C3.07355 20.2887 3.13055 20.1893 3.22406 20.1352L3.85641 19.7713C3.90211 19.7444 3.95421 19.7304 4.00722 19.7306C4.05887 19.7306 4.11172 19.7437 4.15773 19.7713L4.78948 20.1352C4.883 20.1893 4.94059 20.2887 4.94059 20.3968V22.2054C4.94059 22.3131 4.99848 22.412 5.0917 22.4672L6.57608 23.3175C6.59897 23.3305 6.62489 23.3374 6.65125 23.3373C6.67761 23.3373 6.7035 23.3303 6.72633 23.3171C6.74915 23.3039 6.76813 23.285 6.78135 23.2622C6.79458 23.2394 6.80159 23.2135 6.8017 23.1871L6.80734 19.3159" fill="#404137"/>
</svg>
