<svg width="38" height="38" viewBox="0 0 38 38" fill="none" xmlns="http://www.w3.org/2000/svg">
<path d="M3.38437 34.3247H2.44922V27.0809H6.67969V27.9745H3.38437V30.3555H6.365V31.2253H3.39031V34.3247H3.38437ZM8.28875 28.1259C8.16109 28.2536 8.00375 28.3159 7.82266 28.3159C7.64156 28.3159 7.48125 28.2536 7.35656 28.1259C7.22891 27.9983 7.16656 27.8409 7.16656 27.6598C7.16656 27.4788 7.22891 27.3184 7.35656 27.1938C7.48422 27.0661 7.64156 27.0038 7.82266 27.0038C8.00375 27.0038 8.16406 27.0661 8.28875 27.1938C8.41344 27.3214 8.47875 27.4788 8.47875 27.6598C8.47875 27.8409 8.41344 27.9894 8.28875 28.1259ZM8.28875 34.3247H7.35656V29.3669H8.28875V34.3247ZM10.2333 34.3247H9.30109V29.3669H10.1947V30.1744H10.2333C10.3283 29.9042 10.5183 29.6845 10.8181 29.5094C11.112 29.3342 11.397 29.2481 11.6731 29.2481C11.9492 29.2481 12.1808 29.2867 12.3678 29.3669L12.0116 30.2367C11.8928 30.1892 11.7266 30.1655 11.5128 30.1655C11.1714 30.1655 10.8805 30.2991 10.6192 30.5692C10.358 30.8394 10.2303 31.1867 10.2303 31.6142V34.3247H10.2333ZM14.6152 34.4909C13.8641 34.4909 13.2555 34.2386 12.7894 33.7398C12.3233 33.2411 12.0858 32.6088 12.0858 31.8488C12.0858 31.1303 12.3144 30.5039 12.7656 29.9814C13.2258 29.4589 13.8017 29.1977 14.5142 29.1977C15.2505 29.1977 15.8353 29.4352 16.2777 29.9161C16.72 30.4 16.9427 31.0383 16.9427 31.8369L16.9338 32.012H13.018C13.0417 32.5108 13.2169 32.9056 13.5167 33.1995C13.8255 33.4934 14.1817 33.6359 14.5914 33.6359C15.2564 33.6359 15.7136 33.3509 15.9511 32.7809L16.7823 33.1283C16.625 33.5172 16.3548 33.8319 15.9838 34.0931C15.6127 34.3573 15.1525 34.4909 14.6152 34.4909ZM15.9541 31.2491C15.9303 30.9641 15.8027 30.6939 15.5652 30.4416C15.3277 30.1892 14.9714 30.0527 14.4964 30.0527C14.1491 30.0527 13.8552 30.1625 13.6028 30.3763C13.3505 30.59 13.1753 30.8839 13.0803 31.2461L15.9541 31.2491V31.2491ZM20.2172 34.4909C19.8372 34.4909 19.4988 34.4108 19.1959 34.2445C18.8961 34.0872 18.6734 33.8794 18.525 33.6359H18.4864V34.3247H17.5928V27.0809H18.525V29.3669L18.4864 30.0556H18.525C18.6764 29.8092 18.8961 29.6133 19.1959 29.447C19.4958 29.2897 19.8372 29.2006 20.2172 29.2006C20.8584 29.2006 21.4106 29.453 21.8797 29.9606C22.3458 30.4683 22.5744 31.0917 22.5744 31.8428C22.5744 32.5939 22.3458 33.2203 21.8797 33.725C21.4106 34.2386 20.8584 34.4909 20.2172 34.4909ZM20.0569 33.6389C20.4933 33.6389 20.8644 33.4727 21.1731 33.1491C21.4819 32.8255 21.6392 32.3891 21.6392 31.8517C21.6392 31.3144 21.4819 30.878 21.1731 30.5544C20.8644 30.2308 20.4933 30.0645 20.0569 30.0645C19.6205 30.0645 19.2434 30.2219 18.9406 30.5484C18.6408 30.872 18.4805 31.3084 18.4805 31.8547C18.4805 32.4009 18.6319 32.8344 18.9406 33.1609C19.2523 33.4786 19.6234 33.6389 20.0569 33.6389V33.6389ZM24.89 34.4909C24.3586 34.4909 23.9252 34.3395 23.5689 34.0308C23.2127 33.7309 23.0375 33.3272 23.0375 32.8284C23.0375 32.2911 23.2423 31.8636 23.6609 31.5548C24.0795 31.2461 24.5931 31.0947 25.2106 31.0947C25.7569 31.0947 26.2081 31.1986 26.5555 31.3945V31.252C26.5555 30.8869 26.4278 30.5959 26.1844 30.3733C25.932 30.1506 25.6292 30.0408 25.267 30.0408C24.9969 30.0408 24.7534 30.1031 24.5308 30.2308C24.3081 30.3584 24.1597 30.5306 24.0795 30.7622L23.2245 30.397C23.3433 30.0972 23.5659 29.827 23.9044 29.5747C24.2458 29.3223 24.6881 29.1947 25.2403 29.1947C25.8727 29.1947 26.4041 29.3758 26.8227 29.7498C27.2412 30.1209 27.4461 30.6434 27.4461 31.3173V34.3217H26.5525V33.633H26.5139C26.1487 34.2059 25.6025 34.4909 24.89 34.4909V34.4909ZM25.0414 33.6389C25.4303 33.6389 25.7777 33.4964 26.0864 33.2114C26.4041 32.9264 26.5614 32.588 26.5614 32.1902C26.3002 31.9764 25.9053 31.8666 25.3739 31.8666C24.9227 31.8666 24.5842 31.9616 24.3527 32.1605C24.1241 32.3594 24.0053 32.588 24.0053 32.8492C24.0053 33.0956 24.1092 33.2856 24.323 33.4281C24.5338 33.5677 24.7712 33.6389 25.0414 33.6389V33.6389ZM30.0408 34.4909C29.4856 34.4909 29.0284 34.3573 28.6722 34.0872C28.3199 33.8298 28.0464 33.4792 27.8825 33.0748L28.7138 32.7275C28.975 33.3509 29.4262 33.6597 30.0586 33.6597C30.3525 33.6597 30.59 33.5973 30.7711 33.4697C30.9522 33.342 31.0472 33.1698 31.0472 32.962C31.0472 32.6384 30.8186 32.4158 30.3673 32.3059L29.3609 32.0625C29.0433 31.9823 28.7434 31.825 28.4584 31.6023C28.1734 31.3737 28.0309 31.0709 28.0309 30.685C28.0309 30.2486 28.2298 29.8953 28.6158 29.6163C29.0047 29.3402 29.4619 29.2036 29.9992 29.2036C30.4356 29.2036 30.8305 29.3075 31.1689 29.5034C31.5162 29.7023 31.7627 29.9873 31.9052 30.3584L31.0977 30.6909C30.9166 30.2545 30.5366 30.0348 29.9666 30.0348C29.6905 30.0348 29.4589 30.0913 29.2719 30.21C29.0819 30.3288 28.9869 30.4802 28.9869 30.6761C28.9869 30.9611 29.2095 31.1511 29.643 31.255L30.6227 31.4836C31.0888 31.5934 31.4302 31.7775 31.6587 32.0388C31.8814 32.3 31.9913 32.5998 31.9913 32.9323C31.9913 33.3747 31.8102 33.7458 31.445 34.0486C31.0858 34.3484 30.6167 34.4909 30.0408 34.4909V34.4909ZM34.9066 34.4909C34.1555 34.4909 33.5469 34.2386 33.0808 33.7398C32.6147 33.2411 32.3772 32.6088 32.3772 31.8488C32.3772 31.1303 32.6058 30.5039 33.057 29.9814C33.5172 29.4589 34.0931 29.1977 34.8056 29.1977C35.5419 29.1977 36.1267 29.4352 36.5691 29.9161C37.0114 30.4 37.2341 31.0383 37.2341 31.8369L37.2252 32.012H33.3094C33.3331 32.5108 33.5083 32.9056 33.8081 33.1995C34.1169 33.4934 34.4731 33.6359 34.8828 33.6359C35.5478 33.6359 36.005 33.3509 36.2425 32.7809L37.0737 33.1283C36.9164 33.5172 36.6463 33.8319 36.2752 34.0931C35.9011 34.3573 35.4439 34.4909 34.9066 34.4909V34.4909ZM36.2425 31.2491C36.2188 30.9641 36.0911 30.6939 35.8536 30.4416C35.6161 30.1892 35.2598 30.0527 34.7848 30.0527C34.4375 30.0527 34.1436 30.1625 33.8913 30.3763C33.6389 30.59 33.4638 30.8839 33.3688 31.2461L36.2425 31.2491V31.2491ZM11.6523 17.6403L13.9353 3.01031C14.0155 2.51156 14.6834 2.39281 14.918 2.8411L17.3702 7.43375L11.6523 17.6403ZM27.8825 21.1939L25.7034 7.71875C25.6381 7.30016 25.1127 7.12797 24.8098 7.43078L11.0883 21.1939L18.6853 25.457C19.1573 25.7183 19.7481 25.7183 20.2202 25.457L27.8825 21.1939ZM21.7134 9.44063L19.9559 6.09485C19.76 5.71485 19.2227 5.71485 19.0238 6.09485L11.2961 19.8698L21.7134 9.44063Z" fill="#F58220"/>
</svg>
