<svg width="38" height="38" viewBox="0 0 38 38" fill="none" xmlns="http://www.w3.org/2000/svg">
<path d="M5.45953 28.7529L4.0939 27.9641L19.3087 1.61322L20.6735 2.40172L5.45953 28.7529Z" fill="#E434AA"/>
<path d="M3.78041 25.8593H34.2089V27.4357H3.78041V25.8593Z" fill="#E434AA"/>
<path d="M19.6029 35.5324L4.38365 26.7455L5.17215 25.3793L20.3917 34.1673L19.6029 35.5324ZM32.8243 12.63L17.605 3.84186L18.3935 2.47713L33.6131 11.2637L32.8243 12.63Z" fill="#E434AA"/>
<path d="M5.17571 12.624L4.38692 11.2581L19.6077 2.47119L20.3962 3.83622L5.17571 12.624Z" fill="#E434AA"/>
<path d="M32.5437 28.7529L17.3301 2.40172L18.6951 1.61322L33.91 27.9641L32.5437 28.7529ZM4.9875 10.2119H6.5648V27.7881H4.9878L4.9875 10.2119Z" fill="#E434AA"/>
<path d="M31.4352 10.2119H33.0122V27.7881H31.4352V10.2119Z" fill="#E434AA"/>
<path d="M19.3352 34.8653L18.6464 33.6719L31.8829 26.0288L32.5716 27.2223L19.3352 34.8653Z" fill="#E434AA"/>
<path d="M35.1019 28.3005C34.1905 29.887 32.1575 30.4285 30.5713 29.5171C28.9848 28.6045 28.4433 26.5715 29.3547 24.985C30.2673 23.3985 32.3003 22.857 33.8868 23.7687C35.4825 24.6905 36.024 26.714 35.1019 28.3005ZM8.6361 13.015C7.7235 14.6015 5.6905 15.143 4.104 14.2313C2.5175 13.3187 1.976 11.286 2.8877 9.6995C3.8003 8.113 5.833 7.5715 7.4195 8.48291C9.006 9.405 9.5475 11.4285 8.6361 13.015ZM2.8981 28.3005C1.9852 26.714 2.527 24.6905 4.1132 23.7684C5.6997 22.857 7.7232 23.3985 8.6453 24.985C9.5567 26.5715 9.0152 28.595 7.4287 29.5171C5.833 30.4285 3.8095 29.887 2.8981 28.3005ZM29.3639 13.015C28.4525 11.4285 28.994 9.405 30.5805 8.48291C32.167 7.5715 34.1905 8.113 35.1123 9.6995C36.0237 11.286 35.4825 13.3095 33.896 14.2316C32.3095 15.143 30.2765 14.6015 29.3639 13.015ZM19 37.601C18.5645 37.6014 18.1332 37.5159 17.7308 37.3494C17.3283 37.1829 16.9627 36.9387 16.6547 36.6308C16.3468 36.3228 16.1026 35.9572 15.9361 35.5548C15.7696 35.1523 15.6841 34.721 15.6845 34.2855C15.6841 33.85 15.7696 33.4187 15.9361 33.0163C16.1026 32.6138 16.3468 32.2482 16.6547 31.9402C16.9627 31.6323 17.3283 31.3881 17.7308 31.2216C18.1332 31.0551 18.5645 30.9696 19 30.97C19.4355 30.9696 19.8668 31.0551 20.2693 31.2216C20.6717 31.3881 21.0373 31.6323 21.3453 31.9402C21.6532 32.2482 21.8974 32.6138 22.0639 33.0163C22.2304 33.4187 22.3159 33.85 22.3155 34.2855C22.3155 36.1098 20.8335 37.601 19 37.601ZM19 7.03C18.5645 7.03039 18.1332 6.9449 17.7308 6.77842C17.3283 6.61194 16.9627 6.36774 16.6547 6.05979C16.3468 5.75184 16.1026 5.38618 15.9361 4.98375C15.7696 4.58132 15.6841 4.15001 15.6845 3.7145C15.6841 3.279 15.7696 2.84769 15.9361 2.44525C16.1026 2.04282 16.3468 1.67717 16.6547 1.36922C16.9627 1.06127 17.3283 0.817067 17.7308 0.650586C18.1332 0.484104 18.5645 0.398613 19 0.399003C19.4355 0.398613 19.8668 0.484104 20.2693 0.650586C20.6717 0.817067 21.0373 1.06127 21.3453 1.36922C21.6532 1.67717 21.8974 2.04282 22.0639 2.44525C22.2304 2.84769 22.3159 3.279 22.3155 3.7145C22.3159 4.15001 22.2304 4.58132 22.0639 4.98375C21.8974 5.38618 21.6532 5.75184 21.3453 6.05979C21.0373 6.36774 20.6717 6.61194 20.2693 6.77842C19.8668 6.9449 19.4355 7.03039 19 7.03Z" fill="#E434AA"/>
</svg>
