<svg width="38" height="38" viewBox="0 0 38 38" fill="none" xmlns="http://www.w3.org/2000/svg">
<path fill-rule="evenodd" clip-rule="evenodd" d="M5.02728 0.51033C4.6927 0.536455 4.36406 0.532299 4.04017 0.621065C3.33153 0.815518 2.70186 1.12635 2.14641 1.6055C1.81984 1.88694 1.53484 2.19035 1.29289 2.54778C0.919422 3.09967 0.665 3.69283 0.537344 4.3605C0.588406 4.44986 0.642141 4.54367 0.699141 4.63897C1.06103 5.244 1.42322 5.84488 1.786 6.44932L2.73956 8.03492C3.03287 8.52358 3.32559 9.01253 3.61831 9.50119L4.98631 11.7836L5.91939 13.3404C6.37272 14.0959 6.82723 14.8509 7.27997 15.6067L8.94514 18.3887C9.42519 19.19 9.90612 19.9907 10.3871 20.7913L10.4512 20.8846C10.521 20.9068 10.5765 20.8878 10.6341 20.8742C11.2676 20.7222 11.9011 20.5711 12.5347 20.4197C13.5621 20.1741 14.5896 19.9295 15.6171 19.6837L17.2265 19.2987C18.2652 19.0505 19.3043 18.8029 20.3431 18.5541C21.3931 18.3029 22.4429 18.0506 23.4932 17.7991C24.024 17.6718 24.5548 17.545 25.0859 17.4183C26.1134 17.173 27.1409 16.9284 28.1684 16.6838L31.5255 15.8843L31.7068 15.8353L31.6573 15.737L30.7411 14.4421L29.8362 13.1611L28.8684 11.7943L27.9434 10.4841L27.0266 9.18947L26.0802 7.85146C25.7711 7.41505 25.4615 6.97924 25.1521 6.54313L24.6632 5.8526C24.5879 5.74745 24.5291 5.63142 24.4889 5.50852C24.3921 5.20838 24.5026 5.00858 24.6777 4.86103C24.7911 4.76514 24.9218 4.69478 25.0631 4.65322C25.2594 4.59291 25.4585 4.54238 25.6598 4.50181C26.0632 4.42552 26.4694 4.3608 26.8743 4.29341L28.2471 4.06957C28.5365 4.02177 28.8257 3.9716 29.1151 3.92261C29.5085 3.85611 29.9018 3.78932 30.2955 3.72371C30.6776 3.65958 31.0597 3.59605 31.4417 3.53311L32.6925 3.32856L33.5605 3.1828C33.8907 3.12758 34.2205 3.07266 34.5503 3.01863C34.9618 2.95153 35.373 2.88385 35.7844 2.81942C36.0296 2.78113 36.2749 2.76777 36.5183 2.83783C36.6989 2.89131 36.8691 2.97492 37.0218 3.08513L37.2358 3.23446C37.2572 3.18517 37.2263 3.15846 37.2121 3.13025C36.9083 2.51082 36.4774 1.96236 35.9474 1.5206C35.4556 1.10744 34.887 0.79567 34.2742 0.603252C33.9094 0.487768 33.5344 0.541502 33.1526 0.512705M16.5327 37.7031C16.5143 37.7031 16.4979 37.5695 16.4772 37.5342C16.0318 36.7742 15.5818 35.9584 15.1418 35.1957C14.5879 34.2342 14.0379 33.2703 13.4921 32.3042C12.9087 31.2716 12.3304 30.2361 11.7515 29.2012C11.2014 28.2173 10.6523 27.2329 10.1041 26.2479C9.77312 25.6527 9.44419 25.0563 9.11347 24.4607L9.02559 24.3245L8.86469 24.3562C8.54644 24.4385 8.22878 24.5213 7.91113 24.605C7.46878 24.7214 7.02673 24.8398 6.58409 24.9553C5.59045 25.2139 4.59681 25.471 3.60317 25.7287C2.59261 25.9911 1.53959 26.2541 0.528734 26.5154C0.467281 26.5311 0.59375 26.5365 0.296875 26.5469V32.8243C0.419188 33.019 0.407609 32.9273 0.415328 32.9914C0.438781 33.1773 0.476781 33.3646 0.509437 33.5487C0.63175 34.2344 0.906953 34.8623 1.30477 35.4341C1.88813 36.2731 2.66505 36.8728 3.61683 37.2397C3.95675 37.3703 4.31152 37.4624 4.6743 37.5069L5.04272 37.6043" fill="#FD4F31"/>
<path fill-rule="evenodd" clip-rule="evenodd" d="M1.47725 23.0797C2.64664 22.8015 3.81633 22.5236 4.98572 22.246C5.49931 22.1243 6.0132 22.0041 6.5268 21.8818C6.78359 21.8206 7.04098 21.7624 7.2957 21.6935C7.52252 21.6324 7.55042 21.5573 7.43375 21.3527C7.26513 21.0571 7.09353 20.7631 6.92283 20.4683L5.41945 17.8796L3.91667 15.2906C3.40694 14.4124 2.89661 13.5342 2.38658 12.6564L1.07677 10.4031C0.887953 10.0783 0.658766 9.75265 0.469063 9.42816C0.433734 9.36908 0.59375 9.29843 0.296875 9.26696V23.3376C0.296875 23.3281 0.431359 23.3201 0.476781 23.3091L1.47725 23.0797V23.0797ZM37.4727 33.1372C37.0144 33.3002 36.5557 33.4643 36.0976 33.6285L32.9671 34.751C32.3873 34.9591 31.8087 35.1696 31.2286 35.3768C30.0464 35.7987 28.8637 36.219 27.6812 36.64C26.996 36.884 26.3105 37.1857 25.6257 37.4309C25.438 37.4983 25.2531 37.7031 25.0672 37.7031H32.9315L33.1007 37.606C33.3008 37.5974 33.4976 37.5381 33.6941 37.5021C34.5013 37.3546 35.2242 37.0055 35.8646 36.4951C36.3565 36.103 36.7567 35.6235 37.0702 35.0767C37.3926 34.5138 37.5841 33.9049 37.6761 33.2654C37.6841 33.2102 37.7013 33.1476 37.655 33.0906C37.5897 33.0855 37.5321 33.1161 37.4727 33.1372V33.1372ZM36.7974 22.5771C36.4506 22.1026 36.103 21.6291 35.7568 21.1544C35.2791 20.4992 34.8024 19.8434 34.3253 19.1879C34.1314 18.9219 33.9349 18.658 33.7458 18.389C33.6888 18.308 33.6238 18.2863 33.535 18.3104L33.4842 18.3249C32.6061 18.5384 31.7276 18.7512 30.8492 18.9641L29.2751 19.3462L26.196 20.094C25.1809 20.3407 24.1659 20.5877 23.1506 20.8338L19.9853 21.6003C18.9472 21.8524 17.9096 22.1053 16.8717 22.3577L13.8608 23.0886C13.3303 23.2174 12.7998 23.3457 12.2698 23.4751C12.1918 23.4941 12.1078 23.4988 12.0246 23.5618L12.0956 23.6969C13.0428 25.3341 13.9926 26.9697 14.945 28.6039C15.5013 29.5578 16.0592 30.511 16.6164 31.4646C16.9367 32.0123 17.255 32.5607 17.578 33.1069C17.9362 33.714 18.2977 34.3191 18.6625 34.9223C18.772 35.1025 18.8964 35.2747 19.0217 35.4445C19.1056 35.5586 19.2111 35.6552 19.3322 35.7286C19.4587 35.8049 19.5949 35.829 19.7386 35.7966C19.8128 35.7797 19.8856 35.7553 19.9574 35.7304L20.2216 35.6324C21.1826 35.3038 22.1433 34.9751 23.1046 34.6477C23.8545 34.3924 24.6053 34.1383 25.3558 33.8844C26.1007 33.6318 26.8461 33.3803 27.5913 33.1289L29.8101 32.3796C30.5665 32.124 31.3227 31.8683 32.0788 31.6121C33.0069 31.2972 33.9346 30.981 34.8632 30.6666C35.7583 30.3638 36.6543 30.0628 37.5496 29.7605C37.6046 29.7421 37.6651 29.7344 37.7105 29.6741L37.7162 29.5438C37.7165 27.6869 37.7159 25.8296 37.718 23.9727C37.7198 23.879 37.6896 23.7875 37.6322 23.7135C37.3507 23.3368 37.0749 22.9562 36.7974 22.5771V22.5771ZM36.6433 5.07983C36.4349 4.81591 36.1695 4.73219 35.8441 4.8171C35.7025 4.85421 35.557 4.87766 35.4127 4.90408C34.9395 4.99077 34.4657 5.07597 33.9925 5.16177C33.2996 5.28765 32.607 5.41471 31.9141 5.5394C31.3654 5.63796 30.8165 5.73504 30.2676 5.83122L28.0654 6.21657C27.973 6.2326 27.8798 6.24863 27.7908 6.27713C27.661 6.31869 27.6236 6.40004 27.683 6.52205C27.7314 6.6218 27.7917 6.7171 27.857 6.80675C28.3124 7.43435 28.7699 8.06046 29.2273 8.68686C29.8579 9.55047 30.4888 10.4138 31.1196 11.2768C31.6534 12.0071 32.1878 12.7374 32.7219 13.4674C33.1416 14.041 33.5614 14.6146 33.9818 15.1878L34.0646 15.2882L37.7076 14.3878L37.7162 14.1989C37.7165 11.6722 37.7159 9.14554 37.718 6.61854C37.718 6.50691 37.691 6.41726 37.6206 6.32879C37.3142 5.94196 37.0135 5.55068 36.7104 5.16118L36.6433 5.07983V5.07983ZM37.6233 17.3233C37.0723 17.4557 36.5192 17.5815 35.9548 17.7309C36.0145 17.8368 37.5624 19.9263 37.6524 20.0254L37.7088 20.0566L37.715 19.9292L37.7153 19.0496C37.7156 18.5393 37.7168 18.0289 37.7156 17.5186C37.7156 17.4565 37.7331 17.3898 37.6904 17.3268L37.6233 17.3233V17.3233Z" fill="#FD4F31"/>
</svg>
