<svg width="38" height="38" viewBox="0 0 38 38" fill="none" xmlns="http://www.w3.org/2000/svg">
<path fill-rule="evenodd" clip-rule="evenodd" d="M26.1363 12.7098C26.6128 14.0882 26.956 15.4954 27.0688 16.9539C27.2089 18.7634 27.1448 20.5601 26.7633 22.3398C26.7529 22.3888 26.7309 22.4348 26.7146 22.4823C26.595 22.4826 26.4729 22.4678 26.356 22.4859C25.3677 22.6412 24.3803 22.8021 23.3929 22.9621C22.3722 23.1274 21.3501 23.2863 20.3312 23.4629C19.9702 23.5253 19.5234 23.4507 19.3776 23.9501C19.3735 23.9637 19.3319 23.9661 19.3079 23.9738L19.3572 20.9899L19.307 13.7901L19.7826 13.7085C20.5604 13.5811 21.3382 13.452 22.1166 13.3282C23.0455 13.1807 23.9753 13.0373 24.9049 12.8933C25.3148 12.8294 25.7254 12.771 26.1363 12.7098V12.7098Z" fill="#439934"/>
<path fill-rule="evenodd" clip-rule="evenodd" d="M18.3258 32.6723C17.8241 32.2409 17.3048 31.8286 16.8239 31.3749C14.236 28.934 12.3432 26.0612 11.411 22.5975C11.1542 21.6443 10.9829 20.6756 10.928 19.6905C10.8894 19.0012 10.8336 18.3056 10.8822 17.6198C11.012 15.7958 11.2756 13.9893 11.8106 12.2324L11.84 12.1915C11.8919 12.2606 11.9667 12.3218 11.9931 12.3999C12.5154 13.9377 13.0337 15.4767 13.5494 17.0166C15.1697 21.8556 16.788 26.6959 18.411 31.5338C18.4428 31.6282 18.525 31.7057 18.5841 31.7909L18.3258 32.6723V32.6723Z" fill="#45A538"/>
<path fill-rule="evenodd" clip-rule="evenodd" d="M26.1363 12.7098C25.7254 12.771 25.3145 12.8294 24.9045 12.8927C23.975 13.0367 23.0452 13.1801 22.1163 13.3276C21.3379 13.4514 20.5601 13.5805 19.7823 13.7079L19.3067 13.7895L19.3031 13.4793C19.2874 13.2243 19.2604 12.9696 19.2574 12.7146C19.2369 11.0883 19.2241 9.46199 19.204 7.83571C19.1915 6.81773 19.1728 5.80004 19.152 4.78235C19.1392 4.15001 19.1256 3.51737 19.0971 2.88591C19.0816 2.54659 19.027 2.20904 19.0048 1.86971C18.9923 1.67466 19.0095 1.47813 19.0134 1.2822C19.2559 1.75215 19.4931 2.22566 19.7425 2.69206C20.1364 3.42949 20.764 3.97277 21.329 4.56563C23.5624 6.90857 25.148 9.6327 26.1363 12.7098V12.7098Z" fill="#46A037"/>
<path fill-rule="evenodd" clip-rule="evenodd" d="M19.3076 23.9735C19.3316 23.9658 19.3735 23.9635 19.3773 23.9498C19.5231 23.4505 19.9699 23.525 20.3309 23.4626C21.3498 23.2863 22.3719 23.1272 23.3926 22.9618C24.38 22.8018 25.3674 22.6409 26.3557 22.4856C26.4726 22.4672 26.5947 22.4823 26.7143 22.482C26.5296 23.1411 26.3842 23.8144 26.1499 24.4554C25.8839 25.1824 25.5621 25.892 25.2204 26.5875C24.7089 27.625 24.0757 28.598 23.3344 29.4859C22.7647 30.1711 22.1297 30.8043 21.4932 31.4299C21.1414 31.7757 20.7266 32.0575 20.3407 32.3683L20.2406 32.3L19.8802 31.9918L19.5074 31.1745C19.2527 30.2211 19.1137 29.2405 19.0935 28.2539L19.1003 28.0873L19.1511 27.3671C19.168 27.1213 19.1906 26.8758 19.201 26.6294C19.2393 25.7441 19.2725 24.8588 19.3076 23.9735V23.9735Z" fill="#409433"/>
<path fill-rule="evenodd" clip-rule="evenodd" d="M19.3076 23.9735C19.2725 24.8588 19.2393 25.7441 19.2016 26.6297C19.1912 26.8761 19.1686 27.1216 19.1517 27.3674L18.9246 27.4532C18.4202 25.9682 17.9155 24.499 17.4218 23.0259C16.6054 20.5889 15.7988 18.148 14.9836 15.7103C14.3251 13.7428 13.6621 11.7768 12.9945 9.81231C12.9633 9.72028 12.8737 9.64844 12.8113 9.56709L14.2648 6.89462C14.3147 6.98131 14.3806 7.06236 14.4121 7.15558C15.0853 9.14527 15.755 11.1361 16.4213 13.1281C17.287 15.7198 18.1474 18.3136 19.0125 20.9056C19.0469 21.0092 19.1039 21.1048 19.1582 21.2209L19.3571 20.9894L19.3076 23.9735V23.9735Z" fill="#4FAA41"/>
<path fill-rule="evenodd" clip-rule="evenodd" d="M12.8116 9.5674C12.874 9.64874 12.9633 9.72059 12.9948 9.81262C13.6624 11.7771 14.3254 13.7431 14.9839 15.7106C15.7991 18.1483 16.6057 20.5892 17.4221 23.0262C17.9155 24.499 18.4202 25.9686 18.9249 27.4535L19.152 27.3677L19.1012 28.0879L19.0552 28.2539C18.9763 29.0424 18.9098 29.8327 18.8136 30.6194C18.7652 31.0136 18.6625 31.4008 18.5844 31.7912C18.5256 31.706 18.4431 31.6285 18.4113 31.5341C16.7883 26.6959 15.17 21.8559 13.5497 17.0169C13.0342 15.4769 12.5154 13.938 11.9935 12.4002C11.967 12.3221 11.8925 12.2609 11.8403 12.1918L12.8116 9.5674V9.5674Z" fill="#4AA73C"/>
<path fill-rule="evenodd" clip-rule="evenodd" d="M19.3568 20.9897L19.1579 21.2212C19.1036 21.1051 19.0466 21.0093 19.0122 20.9059C18.1474 18.3139 17.2867 15.7201 16.421 13.1284C15.7547 11.1364 15.085 9.14557 14.4118 7.15588C14.3806 7.06266 14.3147 6.98132 14.2645 6.89493L16.0621 4.53032C16.1188 4.60602 16.1996 4.67341 16.229 4.75862C16.728 6.21954 17.2226 7.68224 17.7142 9.14583C18.1735 10.5126 18.6259 11.8815 19.0905 13.2466C19.1217 13.338 19.2301 13.4027 19.3025 13.4799L19.3061 13.7901C19.3233 16.1895 19.3402 18.5897 19.3568 20.9897V20.9897Z" fill="#57AE47"/>
<path fill-rule="evenodd" clip-rule="evenodd" d="M19.3031 13.4793C19.2307 13.4021 19.1223 13.3374 19.0911 13.246C18.6265 11.8809 18.1741 10.512 17.7148 9.14523C17.2232 7.68163 16.7286 6.21923 16.2296 4.75801C16.2002 4.67281 16.1194 4.60541 16.0627 4.52971C16.6473 3.95734 17.2137 3.36448 17.8217 2.81852C18.3623 2.33343 18.7969 1.81331 18.8168 1.04677C18.8177 1.01501 18.8343 0.983243 18.8599 0.89418L19.0139 1.2819C19.0101 1.47813 18.9926 1.67437 19.0053 1.86941C19.0276 2.20874 19.0822 2.54629 19.0977 2.88562C19.1262 3.51707 19.1398 4.14971 19.1526 4.78206C19.1731 5.79974 19.1918 6.81743 19.2045 7.83541C19.2244 9.4617 19.2375 11.088 19.258 12.7143C19.2604 12.9699 19.2871 13.2243 19.3031 13.4793V13.4793Z" fill="#60B24F"/>
<path fill-rule="evenodd" clip-rule="evenodd" d="M18.5838 31.7909C18.6619 31.4005 18.7646 31.013 18.813 30.6191C18.9095 29.8327 18.9757 29.0421 19.0546 28.2536L19.0742 28.2506L19.0938 28.2539C19.114 29.2405 19.253 30.2211 19.5077 31.1745C19.4554 31.2434 19.3815 31.3049 19.3539 31.3827C19.138 31.9912 18.9347 32.6046 18.7177 33.2132C18.688 33.2963 18.6055 33.361 18.5473 33.4341L18.3255 32.6723L18.5838 31.7909V31.7909Z" fill="#A9AA88"/>
<path fill-rule="evenodd" clip-rule="evenodd" d="M18.5476 33.4344C18.6057 33.3613 18.6886 33.2966 18.718 33.2135C18.935 32.6049 19.1386 31.9918 19.3542 31.383C19.3818 31.3052 19.4554 31.2437 19.508 31.1749L19.8805 31.9924C19.8069 32.0969 19.7054 32.1911 19.6644 32.3074L18.9507 34.4031C18.9213 34.4871 18.821 34.5465 18.7539 34.6174L18.5476 33.4344V33.4344Z" fill="#B6B598"/>
<path fill-rule="evenodd" clip-rule="evenodd" d="M18.7539 34.6171C18.8213 34.5465 18.9213 34.4868 18.9507 34.4028L19.6644 32.3071C19.7051 32.191 19.8069 32.0966 19.8805 31.9921L20.2412 32.3C20.067 32.4722 19.9702 32.6711 20.0284 32.9225L19.9188 33.2812C19.869 33.3426 19.7968 33.3961 19.7722 33.4664C19.5231 34.1798 19.2853 34.8971 19.0344 35.6105C19.0027 35.701 18.9145 35.772 18.8522 35.8515C18.8198 35.4398 18.7868 35.0289 18.7539 34.6171V34.6171Z" fill="#C2C1A7"/>
<path fill-rule="evenodd" clip-rule="evenodd" d="M18.8524 35.8515C18.9145 35.7717 19.0027 35.7007 19.0347 35.6105C19.2856 34.8974 19.5234 34.1801 19.7725 33.4664C19.7971 33.3964 19.8689 33.3426 19.9191 33.2812L19.768 34.9273C19.7276 34.974 19.6692 35.0146 19.6499 35.069C19.4792 35.5481 19.3182 36.0308 19.1469 36.51C19.1116 36.6088 19.0439 36.6961 18.9911 36.7885C18.9442 36.727 18.8602 36.6676 18.8563 36.6035C18.8412 36.3538 18.8516 36.1024 18.8524 35.8515V35.8515Z" fill="#CECDB7"/>
<path fill-rule="evenodd" clip-rule="evenodd" d="M18.9908 36.7884C19.0436 36.6958 19.1113 36.6085 19.1467 36.51C19.3183 36.0311 19.4789 35.5484 19.6496 35.0689C19.6689 35.0146 19.7276 34.9742 19.7677 34.9273L19.7713 36.008L19.4097 36.9354L18.9908 36.7884V36.7884Z" fill="#DBDAC7"/>
<path fill-rule="evenodd" clip-rule="evenodd" d="M19.4097 36.9357L19.7713 36.0083L19.8458 37.1055L19.4097 36.9357V36.9357Z" fill="#EBE9DC"/>
<path fill-rule="evenodd" clip-rule="evenodd" d="M20.0284 32.9228C19.9702 32.6714 20.0667 32.4722 20.2412 32.3003L20.3413 32.3686L20.0284 32.9228V32.9228Z" fill="#CECDB7"/>
<path fill-rule="evenodd" clip-rule="evenodd" d="M19.0938 28.2542L19.0742 28.2509L19.0546 28.2539L19.1006 28.0879L19.0938 28.2542V28.2542Z" fill="#4FAA41"/>
</svg>
