<svg width="38" height="38" viewBox="0 0 38 38" fill="none" xmlns="http://www.w3.org/2000/svg">
<path d="M37.251 36.4512L36.4744 35.698C35.7384 34.7207 34.7917 33.8622 33.798 33.1494C33.0057 32.5805 31.2268 31.8122 30.8961 30.8904L30.8352 30.8325C31.3972 30.769 32.0533 30.5659 32.5719 30.4267C33.443 30.1934 34.162 30.2536 35.0615 30.0215C35.4671 29.9057 35.9222 29.7896 36.219 29.6738V29.4423C35.9222 28.9759 35.4985 28.3584 35.0027 27.9362C33.7057 26.8319 32.3187 25.7284 30.861 24.8081C30.0527 24.298 29.0676 23.9664 28.2111 23.5339C27.9229 23.3881 27.4238 23.3124 27.2332 23.0702C26.7829 22.4966 26.5421 21.7692 26.1948 21.101C25.4677 19.7006 24.7552 18.1714 24.111 16.698C23.6716 15.6934 23.3857 14.703 22.8377 13.8017C20.2074 9.47714 17.3767 6.86731 12.9913 4.30172C12.0576 3.75606 10.9342 3.54083 9.7467 3.25879C9.1102 3.2205 8.47281 3.18161 7.83572 3.14272C7.44652 2.98062 7.04188 2.50473 6.67731 2.27376C5.22381 1.35583 1.49714 -0.640659 0.420969 1.98431C-0.258578 3.64117 1.43628 5.25736 2.0425 6.09722C2.46852 6.68562 3.01328 7.34617 3.31698 8.0085C3.51738 8.44401 3.55152 8.88072 3.72281 9.34117C4.14378 10.4758 4.50983 11.7102 5.05489 12.7585C5.33009 13.2893 5.6335 13.848 5.98173 14.3224C6.19489 14.6137 6.56064 14.7419 6.61853 15.1914C6.26109 15.6919 6.24061 16.4691 6.03963 17.1033C5.13416 19.9577 5.47616 23.506 6.7928 25.6185C7.19655 26.2675 8.14833 27.6584 9.45725 27.1246C10.602 26.6585 10.415 25.2133 10.7424 23.9385C10.8163 23.65 10.6875 23.4374 10.9844 23.2435V23.3014C11.2881 24.0061 11.6131 24.7015 11.9587 25.3867C12.7306 26.6297 14.0039 27.9285 15.1644 28.8049C15.7661 29.2594 16.3281 30.0449 16.9219 30.3109V30.2809H16.9875C16.837 29.9841 16.601 29.9345 16.4086 29.7454C15.9553 29.3013 15.4509 28.7414 15.0765 28.2322C14.0208 26.7992 13.088 25.2272 12.2381 23.5944C11.832 22.8148 11.479 21.953 11.137 21.1598C11.0055 20.854 11.0069 20.3903 10.732 20.232C10.3571 20.8133 9.80519 21.283 9.51514 21.9696C9.05172 23.0669 8.99205 24.4052 8.82016 25.7925C8.71833 25.8287 8.76375 25.8038 8.70408 25.8501C7.89717 25.6556 7.61395 24.8253 7.31381 24.1125C6.5553 22.3104 6.41458 19.4091 7.08195 17.3351C7.25473 16.7981 8.03522 15.1083 7.71905 14.6122C7.56823 14.1179 7.07067 13.8314 6.7925 13.4535C6.44783 12.9862 6.10405 12.3711 5.86536 11.8314C5.24459 10.4268 4.95514 8.84954 4.30142 7.42929C3.98881 6.75034 3.46067 6.06308 3.02694 5.45983C2.54689 4.79097 2.00895 4.29845 1.63638 3.49006C1.50427 3.20268 1.32436 2.74253 1.52059 2.44714C1.58294 2.24793 1.67111 2.16481 1.86823 2.09979C2.20459 1.84062 3.13975 2.18589 3.49006 2.33106C4.41898 2.717 5.19442 3.07325 5.98144 3.59456C6.35877 3.84512 6.74114 4.15565 7.19773 4.45253H7.71905C8.53456 4.45253 9.44805 4.5214 10.2101 4.75297C11.5565 5.16236 12.7633 5.8045 13.8593 6.49651C17.198 8.60492 19.9277 11.6087 21.7954 15.1884C22.0958 15.7649 22.2258 16.3162 22.4904 16.9275C23.0241 18.1604 23.6969 19.4296 24.228 20.6352C24.7582 21.8384 25.2748 23.0523 26.0241 24.0534C26.418 24.5795 27.9392 24.8621 28.6306 25.1545C29.1154 25.3591 29.9096 25.5728 30.3685 25.8492C31.2452 26.3782 32.0946 27.0082 32.9175 27.5874C33.3284 27.8766 34.5919 28.5119 34.6551 29.0356C32.6177 28.9797 31.0617 29.1697 29.7314 29.7305C29.3535 29.89 28.7503 29.8944 28.6885 30.3679C28.8963 30.5855 28.9287 30.9109 29.0937 31.1787C29.4111 31.6923 29.9476 32.3816 30.4261 32.7426C30.9492 33.1375 31.4878 33.5593 32.0483 33.901C33.0455 34.5087 34.1581 34.8561 35.1182 35.465C35.6841 35.8242 36.2933 36.2763 36.8446 36.6813C37.1177 36.8817 37.1091 37.1931 37.7028 37.3187V37.2611C37.4062 37.0251 37.422 36.6991 37.251 36.4512ZM8.76197 6.96617C8.33714 6.95815 8.01562 7.01278 7.71875 7.08165V7.125H7.77753C7.9803 7.42187 8.33803 7.81672 8.5883 8.17534L9.1678 9.3949L9.22509 9.33939C9.58402 9.08615 9.74848 8.683 9.74641 8.0655C9.60302 7.91439 9.58134 7.72528 9.45725 7.54478C9.29159 7.30461 8.97067 7.16834 8.76197 6.96617Z" fill="#00618A"/>
</svg>
