<svg width="38" height="38" viewBox="0 0 38 38" fill="none" xmlns="http://www.w3.org/2000/svg">
<path d="M33.4513 9.00541L20.3463 1.40393C19.5207 0.933677 18.4392 0.933677 17.6071 1.40393L4.39969 9.00541C3.54795 9.49555 2.96875 10.4168 2.96875 11.4021V26.5849C2.96875 27.5702 3.56013 28.4917 4.41216 28.9845L7.8942 30.97C9.56472 31.7929 10.0275 31.7929 10.7875 31.7929C13.2617 31.7929 14.5466 30.297 14.5466 27.6878V12.6985C14.5469 12.4869 14.679 12.1719 14.4709 12.1719H12.8018C12.5905 12.1719 12.1719 12.4869 12.1719 12.6982V27.6875C12.1719 28.8441 11.0984 29.9951 9.14316 29.0175L5.54444 26.9355C5.41916 26.8672 5.34375 26.7297 5.34375 26.5849V11.4021C5.34375 11.259 5.4812 11.1153 5.60827 11.042L18.783 3.45355C18.8477 3.41919 18.9198 3.40122 18.993 3.40122C19.0663 3.40122 19.1384 3.41919 19.2031 3.45355L32.2546 11.0402C32.3796 11.1153 32.3597 11.2545 32.3597 11.4021V26.5849C32.3597 26.7297 32.387 26.8708 32.2638 26.9405L19.1618 34.5334C19.0496 34.6008 18.9035 34.6008 18.7803 34.5334L15.4206 32.5298C15.3193 32.471 15.1973 32.4499 15.1 32.5043C14.1663 33.0336 13.9929 33.1039 13.1171 33.4076C12.9013 33.4828 12.583 33.6131 13.2382 33.9803L17.6314 36.5792C18.0508 36.8215 18.5266 36.949 19.011 36.9491C19.4972 36.9499 19.9751 36.8223 20.3962 36.5792L33.4516 28.9845C34.3039 28.4881 34.7347 27.5702 34.7347 26.5849V11.4021C34.7344 10.4168 34.3036 9.49793 33.4513 9.00541ZM23.0752 24.179C19.5938 24.179 18.8272 23.2186 18.5716 21.4875C18.5413 21.3011 18.3834 21.0781 18.1934 21.0781H16.4923C16.2818 21.0781 16.1123 21.3334 16.1123 21.543C16.1123 23.7595 17.3176 26.445 23.0752 26.445C27.2427 26.445 29.6326 24.8256 29.6326 21.9596C29.6326 19.1179 27.7127 18.3721 23.6707 17.8371C19.5851 17.2971 19.1701 17.0243 19.1701 16.0672C19.1701 15.2781 19.5216 14.2257 22.5468 14.2257C25.2495 14.2257 26.2458 14.8058 26.6558 16.6277C26.6911 16.799 26.8476 16.9219 27.0242 16.9219H28.7325C28.8375 16.9219 28.9376 16.8794 29.0112 16.8043C29.0828 16.7236 29.1202 16.6223 29.111 16.5137C28.8459 13.376 26.7618 11.9139 22.5465 11.9139C18.7963 11.9139 16.5597 13.4974 16.5597 16.1518C16.5597 19.0309 18.7854 19.8265 22.385 20.1825C26.6911 20.6046 27.026 21.234 27.026 22.081C27.026 23.5523 25.845 24.179 23.0752 24.179Z" fill="#83CD29"/>
</svg>
