<svg width="38" height="38" viewBox="0 0 38 38" fill="#FFFFFF" xmlns="http://www.w3.org/2000/svg">
  <path d="M19 0.682816C8.87655 0.682816 0.6828 8.87657 0.6828 19C0.6828 29.1234 8.87655 37.3172 19 37.3172C29.1234 37.3172 37.3172 29.1234 37.3172 19C37.3172 8.87657 29.1234 0.682816 19 0.682816ZM28.8859 11.2813C28.025 11.3109 27.4609 10.8063 27.4312 10.0344C27.4312 9.7375 27.4906 9.5 27.6984 9.20313C27.8766 8.84688 27.9359 8.7875 27.9359 8.63907C27.9062 8.16407 27.1937 8.13438 26.9859 8.13438C24.225 8.22344 23.5125 11.9344 22.9187 14.9625L22.6219 16.5656C24.1953 16.8031 25.3234 16.5063 25.9469 16.1203C26.8375 15.5563 25.7094 14.9625 25.8281 14.3094C25.9765 13.6563 26.5703 13.3297 27.0453 13.3C27.7281 13.2703 28.2031 13.9828 28.1734 14.6953C28.1437 15.8531 26.6 17.4859 23.4828 17.3969C23.0969 17.3969 22.7703 17.3672 22.4437 17.3375L21.85 20.5734C21.3156 23.0078 20.6328 26.3625 18.139 29.2719C16.0015 31.825 13.8344 32.2109 12.8547 32.2406C11.0437 32.3 9.82655 31.3203 9.79686 30.0438C9.76718 28.7969 10.8656 28.1141 11.5781 28.0844C12.5578 28.0547 13.2109 28.7672 13.2406 29.5688C13.2703 30.2516 12.9141 30.4594 12.6766 30.6078C12.5281 30.7266 12.2906 30.875 12.2906 31.1422C12.2906 31.2609 12.4391 31.5281 12.825 31.5281C13.5969 31.4984 14.1016 31.1125 14.4578 30.875C16.2391 29.3906 16.9219 26.8078 17.8125 22.1469L17.9906 21.0188C18.2875 19.5047 18.6437 17.7828 19.1484 16.0906C17.9016 15.1406 17.1594 13.9828 15.4672 13.5375C14.3094 13.2109 13.6266 13.4781 13.1219 14.1016C12.5281 14.8438 12.7359 15.7938 13.3 16.3578L14.2203 17.3969C15.3781 18.7328 16.0015 19.7422 15.7641 21.1375C15.4375 23.3047 12.7953 24.9969 9.67811 24.0469C7.00624 23.2156 6.53124 21.3453 6.8578 20.3063C7.12499 19.3859 7.86718 19.2078 8.57968 19.4453C9.35155 19.6828 9.64843 20.6031 9.41093 21.3156C9.38124 21.4047 9.35155 21.5234 9.26249 21.6719C9.17343 21.8797 9.02499 22.0281 8.93593 22.2656C8.7578 22.8297 9.52968 23.2156 10.0641 23.3938C11.2516 23.75 12.4094 23.1266 12.7062 22.1766C12.9734 21.2859 12.4094 20.6625 12.2016 20.425L11.0734 19.2078C10.5687 18.6438 9.41092 17.0406 9.97499 15.2297C10.1828 14.5469 10.6281 13.8047 11.2812 13.3297C12.6469 12.2906 14.1609 12.1422 15.5859 12.5578C17.4265 13.0922 18.3172 14.3094 19.475 15.2594C20.1281 13.3891 21.0187 11.5188 22.3547 9.975C23.5719 8.55 25.175 7.54063 27.0453 7.45157C28.9156 7.39219 30.3109 8.22344 30.3703 9.55938C30.3406 10.1531 30.014 11.2516 28.8859 11.2813Z" fill="#FFFFFF"/>
</svg>
