<svg width="38" height="38" viewBox="0 0 38 38" fill="none" xmlns="http://www.w3.org/2000/svg">
<path d="M19.0012 7.60059C13.9344 7.60059 10.7688 10.1329 9.50119 15.1997C11.4006 12.6671 13.618 11.7174 16.1506 12.3506C17.5967 12.711 18.6301 13.7596 19.7746 14.9215C21.6371 16.8117 23.793 19 28.5012 19C33.5677 19 36.7335 16.4674 38.0012 11.3994C36.1015 13.9335 33.8844 14.8832 31.3515 14.25C29.9057 13.8893 28.8735 12.841 27.7275 11.6791C25.8661 9.78886 23.7108 7.60059 19.0012 7.60059ZM9.50119 19C4.43472 19 1.26885 21.5326 0.00119019 26.6006C1.9006 24.0665 4.11766 23.1168 6.6506 23.75C8.09667 24.1107 9.1301 25.159 10.2745 26.3209C12.1371 28.2111 14.293 30.3994 19.0012 30.3994C24.0677 30.3994 27.2335 27.8671 28.5012 22.8003C26.6015 25.3329 24.3844 26.2826 21.8515 25.6494C20.4057 25.289 19.3735 24.2404 18.2275 23.0785C16.3661 21.1883 14.2108 19 9.50119 19Z" fill="#38B2AC"/>
</svg>
