<svg width="38" height="38" viewBox="0 0 38 38" fill="none" xmlns="http://www.w3.org/2000/svg">
<path d="M6.73016 13.9531H36.3197V35.8239H6.73016V13.9531Z" fill="white"/>
<path d="M0.445312 18.9733V37.528H37.5547V0.418594H0.445312V18.9733ZM30.3495 17.4889C31.2383 17.6952 32.0462 18.16 32.6711 18.8248C33.0151 19.183 33.3142 19.5818 33.5617 20.0123C33.5617 20.0598 31.9586 21.1434 30.9819 21.7491C30.9463 21.7728 30.8038 21.6184 30.6464 21.3839C30.4681 21.0762 30.2148 20.8188 29.91 20.6355C29.6053 20.4523 29.2591 20.3492 28.9037 20.3359C27.7786 20.2587 27.0542 20.8495 27.0602 21.8203C27.0509 22.062 27.1062 22.3018 27.2205 22.515C27.4669 23.0286 27.927 23.3344 29.3698 23.9578C32.0269 25.1008 33.1639 25.8548 33.8705 26.9266C34.6602 28.1141 34.8353 30.0319 34.3009 31.4509C33.7072 32.9947 32.2525 34.0427 30.1952 34.39C29.2555 34.4976 28.3061 34.4877 27.3689 34.3603C25.9325 34.1235 24.6094 33.4339 23.5927 32.392C23.2513 32.015 22.5863 31.0323 22.6278 30.9611C22.7362 30.8806 22.8503 30.8082 22.9692 30.7444L24.3438 29.9844L25.4095 29.3669L25.6322 29.6964C26.008 30.2339 26.4862 30.692 27.0394 31.0442C28.2269 31.6677 29.8478 31.5816 30.6494 30.8602C30.9185 30.5958 31.0864 30.2454 31.1238 29.8701C31.1613 29.4947 31.0658 29.1181 30.8542 28.8058C30.5573 28.3931 29.9636 28.0458 28.3041 27.3214C26.3892 26.4961 25.5639 25.9855 24.8098 25.172C24.3391 24.6352 23.9915 24.0019 23.7916 23.3166C23.6424 22.5335 23.6203 21.7316 23.7262 20.9416C24.1211 19.092 25.5075 17.8006 27.5322 17.4177C28.4698 17.3016 29.4196 17.3277 30.3495 17.4948V17.4889ZM21.6392 19.0445V20.5645H16.8209V34.2891H13.4039V20.5616H8.57375V19.0772C8.5587 18.5653 8.5706 18.053 8.60938 17.5423C8.63313 17.5156 11.5781 17.5156 15.1406 17.5156H21.6214L21.6392 19.0445Z" fill="#007ACC"/>
</svg>
