<svg width="38" height="38" viewBox="0 0 38 38" fill="none" xmlns="http://www.w3.org/2000/svg">
<path d="M19 22.3844C20.8691 22.3844 22.3844 20.8691 22.3844 19C22.3844 17.1309 20.8691 15.6156 19 15.6156C17.1309 15.6156 15.6156 17.1309 15.6156 19C15.6156 20.8691 17.1309 22.3844 19 22.3844Z" fill="#61DAFB"/>
<path d="M31.8547 13.4187C31.2016 13.1812 30.5187 12.9438 29.8062 12.7359C29.9844 12.0234 30.1328 11.3109 30.2516 10.6281C30.875 6.70937 30.1922 3.94844 28.2922 2.87969C27.7281 2.55312 27.1047 2.40469 26.3922 2.40469C24.3141 2.40469 21.6719 3.94844 19 6.53125C16.3281 3.94844 13.6859 2.40469 11.6078 2.40469C10.8953 2.40469 10.2719 2.55312 9.70781 2.87969C7.80781 3.97812 7.125 6.73906 7.74844 10.6281C7.86719 11.3109 8.01563 12.0234 8.19375 12.7359C7.48125 12.9438 6.79844 13.1516 6.14531 13.4187C2.43438 14.8437 0.415627 16.8031 0.415627 19C0.415627 21.1969 2.46406 23.1563 6.14531 24.5813C6.79844 24.8188 7.48125 25.0563 8.19375 25.2641C8.01563 25.9766 7.86719 26.6891 7.74844 27.3719C7.125 31.2906 7.80781 34.0516 9.70781 35.1203C10.2719 35.4469 10.8953 35.5953 11.6078 35.5953C13.7156 35.5953 16.3578 34.0516 19 31.4688C21.6719 34.0516 24.3141 35.5953 26.3922 35.5953C27.1047 35.5953 27.7281 35.4469 28.2922 35.1203C30.1922 34.0219 30.875 31.2609 30.2516 27.3719C30.1328 26.6891 29.9844 25.9766 29.8062 25.2641C30.5187 25.0563 31.2016 24.8484 31.8547 24.5813C35.5656 23.1563 37.5844 21.1969 37.5844 19C37.5844 16.8031 35.5656 14.8437 31.8547 13.4187V13.4187ZM27.4609 4.36406C28.6781 5.07656 29.0937 7.27344 28.5891 10.3906C28.5 11.0141 28.3516 11.6672 28.1734 12.35C26.6297 11.9937 24.9969 11.7562 23.275 11.6078C22.2656 10.1828 21.2266 8.90625 20.1875 7.74844C22.3844 5.58125 24.6109 4.09687 26.4219 4.09687C26.8078 4.09687 27.1641 4.18594 27.4609 4.36406V4.36406ZM24.1359 21.9688C23.6016 22.9188 22.9781 23.8688 22.325 24.8188C21.2266 24.9078 20.1281 24.9375 19 24.9375C17.8422 24.9375 16.7437 24.9078 15.675 24.8188C15.0219 23.8688 14.4281 22.9188 13.8937 21.9688C13.3297 20.9891 12.7953 19.9797 12.3203 19C12.7953 18.0203 13.3297 17.0109 13.8937 16.0313C14.4281 15.0813 15.0516 14.1313 15.7047 13.1813C16.8031 13.0922 17.9016 13.0625 19.0297 13.0625C20.1875 13.0625 21.2859 13.0922 22.3547 13.1813C23.0078 14.1313 23.6016 15.0813 24.1359 16.0313C24.7 17.0109 25.2344 18.0203 25.7094 19C25.2047 19.9797 24.7 20.9594 24.1359 21.9688ZM26.6 20.9891C27.0453 22.0281 27.4016 23.0375 27.7281 24.0469C26.7187 24.2844 25.65 24.4625 24.5219 24.6109C24.8781 24.0469 25.2641 23.4531 25.5906 22.8297C25.9469 22.2063 26.2734 21.5828 26.6 20.9891ZM19 29.0344C18.2875 28.2625 17.6047 27.4313 16.9516 26.5703C17.6344 26.6 18.3172 26.6297 19 26.6297C19.6828 26.6297 20.3656 26.6 21.0484 26.5703C20.3953 27.4313 19.7125 28.2625 19 29.0344ZM13.4781 24.5813C12.35 24.4328 11.2812 24.2547 10.2719 24.0172C10.5984 23.0375 10.9547 21.9984 11.4 20.9594C11.7266 21.5531 12.0531 22.1766 12.4094 22.7703C12.7656 23.4234 13.1219 23.9875 13.4781 24.5813V24.5813ZM11.4 17.0109C10.9547 15.9719 10.5984 14.9625 10.2719 13.9531C11.2812 13.7156 12.35 13.5375 13.4781 13.3891C13.1219 13.9531 12.7359 14.5469 12.4094 15.1703C12.0531 15.7937 11.7266 16.4172 11.4 17.0109V17.0109ZM19 8.96562C19.7125 9.7375 20.3953 10.5687 21.0484 11.4297C20.3656 11.4 19.6828 11.3703 19 11.3703C18.3172 11.3703 17.6344 11.4 16.9516 11.4297C17.6047 10.5687 18.2875 9.7375 19 8.96562ZM25.5906 15.2L24.5219 13.4187C25.65 13.5672 26.7187 13.7453 27.7281 13.9828C27.4016 14.9625 27.0453 16.0016 26.6 17.0406C26.2734 16.4172 25.9469 15.7937 25.5906 15.2ZM9.41094 10.3906C8.90625 7.27344 9.32188 5.07656 10.5391 4.36406C10.8359 4.18594 11.1922 4.09687 11.5781 4.09687C13.3594 4.09687 15.5859 5.55156 17.8125 7.74844C16.7734 8.87656 15.7344 10.1828 14.725 11.6078C13.0031 11.7562 11.3703 12.0234 9.82656 12.35C9.64844 11.6672 9.52969 11.0141 9.41094 10.3906V10.3906ZM2.07813 19C2.07813 17.6047 3.77031 16.1203 6.73906 15.0219C7.33281 14.7844 7.98594 14.5766 8.63906 14.3984C9.11406 15.8828 9.70781 17.4562 10.4203 19.0297C9.70781 20.6031 9.08438 22.1469 8.63906 23.6313C4.54219 22.4438 2.07813 20.6625 2.07813 19ZM10.5391 33.6359C9.32188 32.9234 8.90625 30.7266 9.41094 27.6094C9.5 26.9859 9.64844 26.3328 9.82656 25.65C11.3703 26.0063 13.0031 26.2438 14.725 26.3922C15.7344 27.8172 16.7734 29.0938 17.8125 30.2516C15.6156 32.4188 13.3891 33.9031 11.5781 33.9031C11.1922 33.9031 10.8359 33.8141 10.5391 33.6359ZM28.5891 27.6094C29.0937 30.7266 28.6781 32.9234 27.4609 33.6359C27.1641 33.8141 26.8078 33.9031 26.4219 33.9031C24.6406 33.9031 22.4141 32.4484 20.1875 30.2516C21.2266 29.1234 22.2656 27.8172 23.275 26.3922C24.9969 26.2438 26.6297 25.9766 28.1734 25.65C28.3516 26.3328 28.4703 26.9859 28.5891 27.6094V27.6094ZM31.2609 22.9781C30.6672 23.2156 30.0141 23.4234 29.3609 23.6016C28.8859 22.1172 28.2922 20.5438 27.5797 18.9703C28.2922 17.3969 28.9156 15.8531 29.3609 14.3688C33.4578 15.5563 35.9219 17.3375 35.9219 19C35.9219 20.3953 34.2 21.8797 31.2609 22.9781Z" fill="#61DAFB"/>
</svg>
