<svg width="38" height="38" viewBox="0 0 38 38" fill="none" xmlns="http://www.w3.org/2000/svg">
<path d="M10.5055 21.3127L9.64844 20.8192L19.1936 4.36347L20.0495 4.85509L10.5055 21.3127Z" fill="#E434AA"/>
<path d="M9.4525 19.5047H28.5416V20.4903H9.4525V19.5047Z" fill="#E434AA"/>
<path d="M19.3779 25.5461L9.83042 20.0587L10.3244 19.2051L19.8731 24.6929L19.3779 25.5461ZM27.6732 11.243L18.1242 5.75551L18.6194 4.90319L28.1672 10.3906L27.6732 11.243Z" fill="#E434AA"/>
<path d="M10.3268 11.2397L9.8328 10.3871L19.3815 4.89962L19.8755 5.75195L10.3268 11.2397Z" fill="#E434AA"/>
<path d="M27.4969 21.3127L17.952 4.85509L18.8088 4.36347L28.3542 20.8192L27.4969 21.3127ZM10.2095 9.73453H11.199V20.7094H10.2095V9.73453Z" fill="#E434AA"/>
<path d="M26.801 9.73453H27.7902V20.7094H26.801V9.73453Z" fill="#E434AA"/>
<path d="M19.2099 25.129L18.7773 24.3844L27.0818 19.6113L27.5144 20.3555L19.2099 25.129Z" fill="#E434AA"/>
<path d="M29.1018 21.0294C28.5303 22.021 27.2546 22.3585 26.2595 21.7891C26.023 21.654 25.8156 21.4734 25.6492 21.2578C25.4828 21.0422 25.3606 20.7958 25.2897 20.5329C25.2188 20.2699 25.2005 19.9955 25.236 19.7254C25.2715 19.4554 25.3601 19.195 25.4965 18.9593C26.0683 17.9678 27.3437 17.6305 28.3388 18.1999C29.3407 18.775 29.6807 20.0391 29.1018 21.0291M12.4978 11.4843C11.9261 12.4747 10.6504 12.8131 9.65526 12.2437C9.41884 12.1084 9.21147 11.9277 9.04508 11.712C8.87868 11.4963 8.75652 11.2499 8.68563 10.9869C8.61474 10.7239 8.5965 10.4494 8.63196 10.1793C8.66743 9.90924 8.7559 9.64882 8.8923 9.41301C9.46408 8.42264 10.7397 8.0839 11.7346 8.65331C12.7297 9.22984 13.0693 10.4927 12.4975 11.4843M8.89823 21.0294C8.32526 20.0391 8.66519 18.775 9.6612 18.1999C10.6563 17.6305 11.9261 17.9678 12.5035 18.9593C13.0765 19.9497 12.7365 21.2138 11.7405 21.7891C10.7397 22.3585 9.46972 22.0207 8.89823 21.0291M25.5022 11.4843C24.9307 10.4927 25.2706 9.22984 26.2651 8.65331C27.2602 8.0839 28.5303 8.42264 29.1077 9.41301C29.6807 10.4046 29.3407 11.6675 28.3447 12.2437C27.3496 12.8131 26.0739 12.4747 25.5022 11.4843ZM19 26.8381C17.8496 26.8381 16.9195 25.9127 16.9195 24.7671C16.9195 23.6223 17.8496 22.697 19 22.697C20.1504 22.697 21.0805 23.6223 21.0805 24.7671C21.0805 25.9059 20.1504 26.8381 19 26.8381M19 7.74665C17.8496 7.74665 16.9195 6.8213 16.9195 5.67536C16.9195 4.5309 17.8496 3.60555 19 3.60555C20.1504 3.60555 21.0805 4.5309 21.0805 5.67536C21.0805 6.8213 20.1504 7.74665 19 7.74665M31.6543 36.0727C31.6298 36.074 31.6053 36.0702 31.5823 36.0616C31.5593 36.053 31.5384 36.0398 31.5207 36.0228C31.5036 36.0052 31.4902 35.9842 31.4815 35.9613C31.4728 35.9383 31.4688 35.9138 31.4699 35.8892V30.4077C31.4699 30.3519 31.4872 30.3068 31.521 30.2732C31.5386 30.2563 31.5596 30.2431 31.5825 30.2345C31.6054 30.2259 31.6298 30.2221 31.6543 30.2234H31.8146C31.8701 30.2234 31.9152 30.2394 31.9488 30.2732C31.9658 30.2911 31.979 30.3122 31.9875 30.3354C31.9961 30.3585 31.9999 30.3831 31.9987 30.4077V35.5716H34.8956C34.957 35.5716 35.0045 35.5879 35.0381 35.6214C35.0719 35.6553 35.088 35.7028 35.088 35.763V35.8895C35.0892 35.914 35.0854 35.9384 35.0768 35.9613C35.0682 35.9842 35.055 36.0052 35.0381 36.0228C35.0045 36.0564 34.957 36.0727 34.8956 36.0727H31.6543ZM29.7154 36.6154C29.6854 36.6157 29.6557 36.6095 29.6283 36.5973C29.6009 36.5852 29.5764 36.5672 29.5566 36.5447C29.5188 36.5057 29.4824 36.4654 29.4473 36.4239L29.0774 35.9139C28.7422 36.0751 28.3504 36.1561 27.9027 36.1561C27.4378 36.1561 27.0435 36.0739 26.7187 35.9103C26.394 35.7455 26.1446 35.4917 25.9718 35.1494C25.7978 34.8062 25.7028 34.3737 25.6868 33.8497C25.6809 33.5991 25.6773 33.3649 25.6773 33.1479C25.6773 32.9312 25.6809 32.6966 25.6865 32.4464C25.7028 31.928 25.8038 31.4978 25.9881 31.1544C26.1725 30.8124 26.4287 30.5573 26.757 30.3902C27.0839 30.2234 27.4657 30.1396 27.903 30.1396C28.3388 30.1396 28.7203 30.2234 29.0486 30.3902C29.3755 30.5573 29.6329 30.8124 29.8208 31.1544C30.0078 31.4978 30.1073 31.928 30.1189 32.4464C30.1291 32.6801 30.1346 32.9139 30.1352 33.1479C30.1352 33.3646 30.1292 33.5991 30.1189 33.8497C30.091 34.6462 29.8858 35.2319 29.5055 35.6054L30.0434 36.3565C30.0502 36.3655 30.0557 36.3754 30.0598 36.3859C30.0657 36.3995 30.0678 36.4206 30.0678 36.4482C30.068 36.4702 30.0637 36.4919 30.0551 36.5121C30.0465 36.5323 30.0339 36.5505 30.0179 36.5655C30.0028 36.5813 29.9847 36.5939 29.9646 36.6025C29.9445 36.6111 29.9228 36.6155 29.901 36.6154H29.7154ZM27.9027 35.6553C28.3839 35.6553 28.7794 35.5101 29.0902 35.2204C29.401 34.9303 29.567 34.4595 29.5901 33.8078C29.6005 33.5573 29.6064 33.337 29.6064 33.1479C29.6064 32.9591 29.6005 32.7385 29.5901 32.4882C29.5782 32.0533 29.4984 31.6994 29.35 31.4269C29.2015 31.1535 29.0032 30.9549 28.7538 30.8287C28.5059 30.7034 28.2215 30.6408 27.9027 30.6408C27.5886 30.6408 27.3077 30.7031 27.0587 30.8287C26.8093 30.9552 26.611 31.1535 26.4625 31.4269C26.3141 31.6994 26.2316 32.0533 26.2155 32.4882C26.2096 32.7385 26.206 32.9591 26.206 33.1479C26.206 33.337 26.2096 33.5576 26.2155 33.8078C26.2375 34.4595 26.4055 34.9303 26.7187 35.2204C27.032 35.5101 27.4262 35.6553 27.9027 35.6553ZM21.0351 36.0727C21.0106 36.0739 20.9862 36.0701 20.9633 36.0615C20.9403 36.053 20.9194 36.0398 20.9018 36.0228C20.8846 36.0052 20.8712 35.9843 20.8624 35.9613C20.8536 35.9383 20.8496 35.9138 20.8507 35.8892V30.3228C20.8507 30.2673 20.8682 30.2234 20.9018 30.1895C20.9195 30.1725 20.9404 30.1593 20.9634 30.1507C20.9864 30.1421 21.0109 30.1384 21.0354 30.1396H21.1779C21.2346 30.1396 21.2788 30.156 21.3124 30.1895C21.3296 30.2071 21.343 30.228 21.3517 30.251C21.3605 30.274 21.3645 30.2985 21.3634 30.3231V32.3036C21.5129 32.1098 21.6999 31.9481 21.9132 31.8283C22.1288 31.7054 22.415 31.6439 22.7736 31.6439C23.1539 31.6439 23.4718 31.7261 23.7257 31.8909C23.981 32.0542 24.171 32.2768 24.2974 32.5589C24.4227 32.8409 24.4862 33.1595 24.4862 33.5157V35.8895C24.4873 35.914 24.4834 35.9385 24.4746 35.9614C24.4659 35.9843 24.4526 36.0052 24.4355 36.0228C24.4176 36.0399 24.3965 36.0532 24.3733 36.0618C24.3501 36.0703 24.3254 36.0741 24.3007 36.0727H24.1582C24.1336 36.0739 24.109 36.0701 24.0858 36.0616C24.0627 36.053 24.0416 36.0398 24.0237 36.0228C24.0067 36.0051 23.9935 35.9842 23.9849 35.9612C23.9763 35.9382 23.9726 35.9137 23.9738 35.8892V33.5573C23.9738 33.112 23.8649 32.7616 23.6467 32.509C23.4276 32.2549 23.1087 32.1287 22.689 32.1287C22.2923 32.1287 21.9723 32.2549 21.7286 32.5087C21.4851 32.7616 21.3634 33.112 21.3634 33.5573V35.8895C21.3645 35.914 21.3605 35.9385 21.3517 35.9614C21.3429 35.9844 21.3295 36.0052 21.3124 36.0228C21.2946 36.0399 21.2734 36.0531 21.2503 36.0617C21.2272 36.0703 21.2025 36.074 21.1779 36.0727H21.0351ZM16.1589 37.6601C16.1343 37.6614 16.1096 37.6577 16.0865 37.6491C16.0634 37.6405 16.0422 37.6273 16.0244 37.6102C16.0073 37.5926 15.9939 37.5718 15.9851 37.5488C15.9763 37.5259 15.9723 37.5014 15.9734 37.4769V31.9117C15.9734 31.8562 15.9906 31.8107 16.0244 31.7772C16.0422 31.7601 16.0634 31.7469 16.0865 31.7383C16.1096 31.7297 16.1343 31.726 16.1589 31.7273H16.3014C16.3572 31.7273 16.4023 31.7437 16.4359 31.7772C16.4529 31.7951 16.4661 31.8162 16.4746 31.8393C16.4832 31.8624 16.487 31.8871 16.4858 31.9117V32.3036C16.6262 32.1147 16.8094 31.9571 17.0356 31.8315C17.2627 31.7065 17.5492 31.6439 17.8959 31.6439C18.2266 31.6439 18.5036 31.7006 18.7275 31.8155C18.9425 31.9218 19.1293 32.0776 19.2725 32.27C19.413 32.46 19.516 32.6714 19.5834 32.9053C19.6505 33.1399 19.6864 33.3788 19.6923 33.6247C19.6982 33.7081 19.7003 33.7998 19.7003 33.9007C19.7003 34.0002 19.6982 34.0919 19.6923 34.1754C19.687 34.4187 19.6504 34.6604 19.5834 34.8944C19.516 35.1289 19.413 35.3397 19.2725 35.5297C19.1293 35.7222 18.9425 35.8781 18.7275 35.9845C18.5036 36.0994 18.2266 36.1561 17.8962 36.1561C17.5492 36.1561 17.2627 36.0923 17.0353 35.9637C16.8097 35.8361 16.6262 35.6796 16.4861 35.4962V37.4769C16.4873 37.5014 16.4835 37.5259 16.4748 37.5489C16.4662 37.5719 16.453 37.5928 16.4359 37.6105C16.418 37.6274 16.3969 37.6406 16.3737 37.6491C16.3506 37.6576 16.326 37.6613 16.3014 37.6601H16.1589ZM17.846 35.6713C18.1756 35.6713 18.4365 35.5995 18.6268 35.4546C18.8168 35.3097 18.9599 35.1121 19.0383 34.8864C19.1217 34.6518 19.1692 34.4016 19.1808 34.1338C19.1854 33.978 19.1854 33.822 19.1808 33.6662C19.1714 33.4096 19.1233 33.1559 19.0383 32.9136C18.9595 32.6881 18.8164 32.4905 18.6265 32.3454C18.4365 32.2005 18.1753 32.1287 17.846 32.1287C17.5272 32.1287 17.2698 32.2041 17.0739 32.3534C16.8816 32.4995 16.7321 32.6946 16.6413 32.9184C16.5509 33.1347 16.4983 33.365 16.4858 33.5991C16.4798 33.6825 16.4777 33.7915 16.4777 33.9248C16.4777 34.0584 16.4801 34.1673 16.4858 34.2508C16.4917 34.4734 16.5428 34.6937 16.6413 34.9107C16.7387 35.1285 16.8924 35.3162 17.0866 35.4546C17.285 35.5995 17.5379 35.6713 17.846 35.6713V35.6713ZM12.6415 36.1564C12.3841 36.159 12.1296 36.1018 11.8982 35.9893C11.682 35.8858 11.4936 35.7324 11.3486 35.5416C11.2102 35.3606 11.1363 35.1385 11.1387 34.9107C11.1387 34.5325 11.2931 34.2288 11.6001 34.0002C11.9074 33.7716 12.3075 33.6247 12.8004 33.5573L14.1271 33.3741V33.0808C14.1271 32.786 14.0354 32.5529 13.8546 32.3837C13.6726 32.2133 13.3825 32.1284 12.9847 32.1284C12.6938 32.1284 12.4592 32.1854 12.2796 32.3003C12.1012 32.414 11.9783 32.5633 11.9109 32.7468C11.883 32.8299 11.8299 32.8721 11.7509 32.8721H11.6173C11.5502 32.8721 11.5027 32.8546 11.4736 32.8174C11.4455 32.7805 11.4308 32.735 11.4321 32.6886C11.4321 32.6099 11.462 32.5126 11.5202 32.3965C11.5793 32.2792 11.6699 32.1634 11.794 32.0485C11.9169 31.9348 12.0757 31.8387 12.2716 31.7609C12.4676 31.6834 12.7051 31.6439 12.9847 31.6439C13.3154 31.6439 13.588 31.6878 13.8035 31.7775C14.0193 31.8666 14.1874 31.9823 14.3082 32.124C14.4275 32.2665 14.513 32.4244 14.5632 32.596C14.6143 32.7688 14.6386 32.9392 14.6386 33.1063V35.8895C14.6398 35.914 14.636 35.9384 14.6275 35.9613C14.6189 35.9842 14.6057 36.0052 14.5887 36.0228C14.5709 36.0398 14.5497 36.053 14.5266 36.0616C14.5035 36.0701 14.4789 36.0739 14.4542 36.0727H14.3115C14.2868 36.0739 14.2622 36.0701 14.2391 36.0616C14.216 36.053 14.1948 36.0398 14.177 36.0228C14.16 36.0051 14.1468 35.9842 14.1382 35.9612C14.1296 35.9382 14.1258 35.9137 14.1271 35.8892V35.4962C14.0472 35.6097 13.9511 35.711 13.8418 35.7966C13.7189 35.8975 13.5598 35.9821 13.3674 36.0519C13.1738 36.1214 12.9325 36.1561 12.6415 36.1561V36.1564ZM12.725 35.6713C12.9823 35.6713 13.2178 35.6158 13.43 35.5045C13.6423 35.3931 13.8115 35.2215 13.938 34.9909C14.0645 34.7599 14.1271 34.4687 14.1271 34.1175V33.8334L13.0441 33.9842C12.5848 34.0444 12.2381 34.151 12.0027 34.3006C11.7681 34.4515 11.65 34.6406 11.65 34.8689C11.65 35.0532 11.7034 35.204 11.8103 35.3213C11.9169 35.4371 12.0525 35.5252 12.217 35.5831C12.3818 35.6425 12.551 35.6713 12.725 35.6713V35.6713ZM8.79611 36.0727C8.77148 36.0739 8.74686 36.0701 8.72375 36.0616C8.70063 36.053 8.67949 36.0398 8.66162 36.0228C8.64484 36.005 8.63179 35.984 8.62322 35.961C8.61466 35.9381 8.61076 35.9137 8.61175 35.8892V31.92C8.61175 31.8642 8.62897 31.8179 8.66162 31.782C8.67888 31.7638 8.6998 31.7496 8.72299 31.7402C8.74617 31.7307 8.7711 31.7264 8.79611 31.7273H8.93059C8.98641 31.7273 9.03272 31.746 9.06983 31.782C9.08778 31.8001 9.10185 31.8217 9.11119 31.8454C9.12053 31.8691 9.12494 31.8945 9.12415 31.92V32.3039C9.21792 32.1152 9.37132 31.9627 9.56056 31.8701C9.75056 31.7751 9.98598 31.7276 10.2653 31.7276H10.5762C10.632 31.7276 10.6771 31.7437 10.7107 31.7772C10.7276 31.7951 10.7408 31.8162 10.7494 31.8393C10.758 31.8624 10.7618 31.8871 10.7605 31.9117V32.0275C10.7605 32.0845 10.7442 32.1284 10.7107 32.1622C10.6928 32.1792 10.6717 32.1924 10.6485 32.201C10.6254 32.2096 10.6008 32.2134 10.5762 32.2121H10.2155C9.87911 32.2121 9.6137 32.3095 9.41776 32.5042C9.22183 32.6993 9.12415 32.9647 9.12415 33.2987V35.8895C9.12514 35.9143 9.12079 35.9391 9.11142 35.962C9.10205 35.985 9.08787 36.0058 9.06983 36.0228C9.03155 36.0567 8.98169 36.0746 8.93059 36.0727H8.79611ZM5.16176 36.1564C4.68053 36.1564 4.27559 36.0635 3.94873 35.8767C3.62757 35.6963 3.36751 35.4241 3.2018 35.0951C3.0302 34.7611 2.93758 34.376 2.91977 33.9423C2.91412 33.6906 2.91205 33.4263 2.91205 33.1479C2.91205 32.8697 2.91412 32.6052 2.92006 32.3534C2.93758 31.9141 3.0302 31.5281 3.20209 31.1962C3.36964 30.8683 3.63114 30.5978 3.95319 30.4193C4.28272 30.2323 4.68647 30.1396 5.16147 30.1396C5.548 30.1396 5.87842 30.1966 6.15214 30.3115C6.42675 30.4249 6.65089 30.5677 6.82337 30.737C6.99734 30.9074 7.12619 31.0781 7.20961 31.2505C7.29422 31.4236 7.33845 31.5682 7.34409 31.6855C7.34792 31.7075 7.34612 31.7301 7.33885 31.7512C7.33158 31.7724 7.31909 31.7913 7.30253 31.8063C7.26539 31.8386 7.21718 31.8552 7.16805 31.8526H6.98339C6.93262 31.8526 6.89641 31.8398 6.87444 31.8155C6.85128 31.79 6.82931 31.7472 6.80734 31.6855C6.74572 31.5033 6.65 31.3346 6.52531 31.1882C6.39469 31.0294 6.21805 30.8982 5.99687 30.7963C5.7763 30.693 5.49694 30.6408 5.16176 30.6408C4.66301 30.6408 4.25926 30.7764 3.94873 31.0466C3.63791 31.3167 3.47195 31.7668 3.4488 32.3965C3.43256 32.8977 3.43256 33.3993 3.4488 33.9005C3.47195 34.5245 3.63791 34.9722 3.94873 35.2459C4.25956 35.5184 4.66301 35.6553 5.16176 35.6553C5.49219 35.6553 5.78817 35.5926 6.0512 35.4674C6.31309 35.3436 6.53025 35.1418 6.67286 34.8896C6.82337 34.6314 6.89878 34.3006 6.89878 33.9005V33.4738H5.43875C5.41374 33.4748 5.38881 33.4704 5.36563 33.461C5.34244 33.4516 5.32152 33.4373 5.30427 33.4192C5.27022 33.3815 5.25231 33.3319 5.25439 33.2812V33.1642C5.25439 33.1039 5.27072 33.0564 5.30427 33.0226C5.32213 33.0056 5.34327 32.9924 5.36639 32.9838C5.3895 32.9753 5.41412 32.9715 5.43875 32.9727H7.23514C7.29659 32.9727 7.34409 32.989 7.37764 33.0226C7.41148 33.0564 7.42781 33.1039 7.42781 33.1642V33.9005C7.42781 34.3458 7.33964 34.7391 7.1633 35.079C6.99092 35.4147 6.72184 35.6909 6.39083 35.872C6.05239 36.0611 5.6427 36.1561 5.16176 36.1561V36.1564Z" fill="#E434AA"/>
</svg>
