<svg width="38" height="38" viewBox="0 0 38 38" fill="none" xmlns="http://www.w3.org/2000/svg">
<path fill-rule="evenodd" clip-rule="evenodd" d="M0.361889 16.6713C0.361889 16.88 0.423342 17.0178 0.45778 17.1517C0.682217 18.0224 1.16464 18.7696 1.73701 19.4512C2.55223 20.4226 3.55062 21.2046 4.57336 21.94C5.46042 22.5776 6.36559 23.2011 7.25622 23.834C7.40911 23.9427 7.55369 24.0677 7.71964 24.201C7.57684 24.2781 7.45809 24.3461 7.33459 24.4088C6.15926 25.0049 5.02847 25.6732 3.98614 26.4827C3.35795 26.9708 2.75055 27.4894 2.32156 28.1672C1.63133 29.2573 1.387 30.4187 1.90148 31.6587C2.0517 32.0209 2.28089 32.3338 2.60419 32.5651C2.70898 32.6399 2.82655 32.7141 2.94915 32.7432C3.26325 32.8172 3.58328 32.8655 3.90123 32.924L4.80165 32.9234C5.79737 32.8347 6.70373 32.4936 7.52281 31.9283C8.80294 31.0448 9.66536 29.8603 10.0362 28.34C10.3057 27.235 10.3167 26.1289 9.99904 25.0289C9.96864 24.927 9.93357 24.8266 9.89395 24.7279C9.85536 24.629 9.80994 24.5329 9.7565 24.4097L11.7978 23.2358L11.8284 23.2619C11.7913 23.3834 11.7518 23.5045 11.7182 23.6271C11.4757 24.513 11.3145 25.4143 11.3724 26.3337C11.4341 27.3134 11.7076 28.2304 12.2811 29.0489C12.7448 29.711 13.8498 29.7356 14.3426 29.0712C14.5175 28.8352 14.687 28.5885 14.8144 28.3251C15.1472 27.6379 15.4553 26.9384 15.7733 26.2438L15.8288 26.1167C15.8059 26.4456 15.7792 26.7345 15.767 27.0236C15.748 27.4752 15.7745 27.9241 15.9288 28.3536C16.0609 28.7212 16.2857 28.9958 16.7066 29.0442C16.9946 29.0771 17.2241 28.9453 17.4358 28.7782C17.7637 28.519 18.0355 28.1959 18.2347 27.8285C18.799 26.7921 19.3785 25.7619 19.89 24.6994C20.4434 23.5502 20.9273 22.3675 21.4412 21.1987L21.5261 20.9914C21.6475 21.4685 21.7321 21.9358 21.888 22.3781C22.0691 22.8914 22.2932 23.3926 22.5373 23.8797C22.6527 24.1098 22.6394 24.2591 22.4794 24.4521C21.8096 25.2596 21.1515 26.0769 20.4927 26.8933C20.3469 27.0735 20.2017 27.257 20.0803 27.4538C20.0067 27.5781 19.9582 27.7157 19.9378 27.8587C19.9174 27.9904 19.9487 28.1249 20.0253 28.234C20.1018 28.3431 20.2176 28.4183 20.3484 28.4439C20.6124 28.5007 20.883 28.52 21.1523 28.5012C22.0718 28.4335 22.9066 28.1108 23.6446 27.564C24.6008 26.8556 24.9078 25.889 24.6762 24.7433C24.6136 24.4325 24.5029 24.1303 24.3951 23.8308C24.3467 23.6957 24.3435 23.601 24.4316 23.4751C25.1961 22.3835 25.8492 21.2254 26.4566 20.0405C26.4807 19.9939 26.5053 19.9473 26.5474 19.8975C26.7443 20.9217 27.0406 21.9088 27.5714 22.8045C27.3006 23.0654 27.0325 23.302 26.79 23.5627C26.2559 24.1368 25.7928 24.7603 25.5511 25.5206C25.4472 25.8483 25.3674 26.1814 25.4137 26.5314C25.4855 27.075 25.9308 27.4283 26.4655 27.3045C27.6097 27.0397 28.5974 26.5005 29.3191 25.5455C29.8048 24.9025 29.849 24.1852 29.6456 23.4338C29.5898 23.2296 29.5236 23.0286 29.4524 22.7944C29.7347 22.7068 30.0099 22.6017 30.2946 22.5367C31.7727 22.1994 33.2349 22.2582 34.6593 22.792C35.4908 23.1037 36.1626 23.6253 36.561 24.4459C37.0476 25.449 36.7787 26.4008 35.8331 27.0349C35.7449 27.094 35.644 27.1406 35.571 27.2145C35.5476 27.2416 35.5301 27.2733 35.5196 27.3076C35.5091 27.3418 35.5059 27.3779 35.5101 27.4134C35.5163 27.45 35.6128 27.4957 35.6683 27.4951C35.9792 27.4927 36.2312 27.3297 36.4732 27.1623C37.0794 26.7428 37.5217 26.1784 37.617 25.4354L37.6357 25.3795L37.6129 24.8956C37.6037 24.8677 37.6197 24.8401 37.6176 24.819C37.4888 23.7369 36.9108 22.8977 36.07 22.2398C35.0963 21.4783 33.9465 21.1648 32.7305 21.1152C31.7442 21.0728 30.7593 21.2244 29.8315 21.5614C29.5652 21.6579 29.3013 21.7722 29.0335 21.88C28.9976 21.815 28.959 21.7526 28.9272 21.6882C28.6523 21.1253 28.3192 20.5874 28.2456 19.942C28.1933 19.4836 28.1292 19.0258 28.2382 18.5725C28.3429 18.1364 28.4795 17.7077 28.6081 17.2775C28.6743 17.0561 28.6277 16.932 28.4163 16.8322C28.3426 16.7955 28.264 16.7697 28.1829 16.7556C27.6634 16.6802 27.151 16.7233 26.6478 16.8696C26.4697 16.9216 26.3402 17.0213 26.3007 17.2185C26.2782 17.3316 26.2322 17.4399 26.2001 17.5515C26.0686 18.0156 25.9754 18.4885 25.7628 18.9305C25.2302 20.0394 24.6222 21.1063 24 22.1656C23.9326 22.2799 23.8616 22.3921 23.7767 22.5307C23.5582 22.0735 23.3252 21.6633 23.2545 21.1823C23.1747 20.6385 23.1117 20.0955 23.2471 19.5558C23.3477 19.1532 23.4792 18.758 23.6004 18.3608C23.6577 18.172 23.6312 18.0729 23.4602 17.9734C23.3739 17.9232 23.2762 17.8787 23.1788 17.8642C22.6461 17.783 22.1018 17.8275 21.5893 17.9942C21.4281 18.0464 21.3435 18.1506 21.2942 18.3169C21.1494 18.8073 21.0259 19.3096 20.8225 19.776C19.999 21.6642 19.1517 23.5425 18.3053 25.4205C18.1287 25.8127 17.9217 26.1912 17.7225 26.573C17.6721 26.6698 17.5985 26.755 17.5355 26.8458C17.485 26.7861 17.4655 26.7452 17.4657 26.7042C17.4672 26.4628 17.4384 26.2144 17.4845 25.981C17.6258 25.2753 17.7819 24.5726 17.9529 23.8735C18.0925 23.2958 18.2548 22.7234 18.4095 22.1495C18.4615 21.9575 18.4624 21.7779 18.3243 21.6164C18.0925 21.3459 17.608 21.2865 17.3206 21.4949L17.1935 21.5668L17.2182 21.3619C17.2787 20.9229 17.2909 20.4853 17.1704 20.0527C17.0201 19.5136 16.6354 19.2034 16.0761 19.2206C15.8154 19.2286 15.5417 19.2731 15.3003 19.3681C14.2853 19.7659 13.5048 20.4704 12.8404 21.318C12.7788 21.3967 12.7025 21.4626 12.6157 21.5122C11.7568 21.9883 10.8953 22.4586 10.0341 22.9306L9.07547 23.4558C8.81837 23.2106 8.58473 22.9562 8.31962 22.7403C7.51005 22.0801 6.6874 21.4362 5.87219 20.7833C5.14959 20.2047 4.44956 19.6021 3.914 18.8358C3.51559 18.2658 3.2588 17.6421 3.23415 16.9373C3.20298 16.0393 3.4577 15.2187 3.91489 14.4548C4.49973 13.4775 5.29744 12.6932 6.1744 11.9828C7.10214 11.2317 8.10558 10.594 9.14553 10.0118C10.6005 9.19748 12.0971 8.47667 13.7017 8.00078C15.347 7.51272 17.0163 7.23336 18.7382 7.42811C19.415 7.5047 20.0723 7.65967 20.6759 7.99069C21.1381 8.24392 21.5172 8.57553 21.6935 9.09387C21.8675 9.60391 21.8622 10.1208 21.7416 10.6388C21.4967 11.688 20.9223 12.5528 20.1994 13.3255C19.0137 14.5923 17.5673 15.4547 15.9389 16.0244C15.0027 16.3524 14.0285 16.5602 13.0399 16.6428C12.2298 16.7108 11.4365 16.639 10.6694 16.3572C10.1614 16.1705 9.71909 15.8849 9.36344 15.4705C9.2999 15.3962 9.21856 15.3158 9.10011 15.3853C8.98403 15.4535 8.96355 15.564 9.00244 15.6759C9.06745 15.8617 9.12742 16.0553 9.22865 16.2215C9.48308 16.6387 9.85417 16.9412 10.2627 17.2006C11.0473 17.6997 11.9243 17.8674 12.8336 17.9063C14.2135 17.966 15.5598 17.76 16.8871 17.3898C18.7821 16.8613 20.4297 15.9279 21.7511 14.4554C22.8514 13.2293 23.6372 11.8456 23.8055 10.1748C23.8877 9.35928 23.8002 8.56039 23.4184 7.81642C23.0042 7.01041 22.3458 6.41102 21.5585 5.99806C20.4119 5.39689 19.1746 5.04688 17.8974 5.04688H16.6179C15.0712 5.04688 13.5758 5.49011 12.1223 6.01884C11.0221 6.41933 9.94323 6.89195 8.89586 7.41505C6.61497 8.55475 4.49083 9.92898 2.74609 11.8186C1.87684 12.76 1.14089 13.7987 0.717545 15.0219C0.589772 15.387 0.479701 15.7582 0.387717 16.134M8.65242 26.8253C8.55356 28.1491 7.95358 29.2223 6.973 30.0915C6.4214 30.5802 5.78876 30.9281 5.05192 31.0505C4.78473 31.0947 4.51131 31.1054 4.25214 30.9946C3.88253 30.8367 3.7997 30.5087 3.79258 30.1592C3.78159 29.6023 3.97664 29.0988 4.24412 28.6196C4.59325 27.995 5.10506 27.5188 5.65161 27.0741C6.51255 26.3732 7.44651 25.78 8.40305 25.2201L8.47519 25.1904C8.62303 25.7367 8.69339 26.2761 8.65242 26.8253V26.8253ZM16.1212 21.0722C16.0514 21.4949 15.9642 21.918 15.8407 22.3277C15.4137 23.7458 14.8654 25.1201 14.2726 26.4759C14.163 26.7268 14.0036 26.9557 13.865 27.1935C13.8414 27.23 13.8131 27.2633 13.7809 27.2926C13.6093 27.4621 13.4467 27.4532 13.36 27.2315C13.259 26.9738 13.197 26.698 13.1435 26.4251C13.1076 26.242 13.1162 26.0496 13.105 25.862C13.1165 24.5278 13.5235 23.3154 14.2141 22.1867C14.4988 21.7212 14.8087 21.2776 15.2822 20.9831C15.4295 20.8915 15.5889 20.821 15.7557 20.7735C16.0081 20.7026 16.1631 20.8193 16.1212 21.0722V21.0722ZM21.2168 27.5642L23.0482 25.4259C23.1245 26.22 21.7746 27.8053 21.2168 27.5642ZM27.0661 26.1253C26.9367 26.1995 26.7956 26.253 26.6629 26.3215C26.5415 26.3845 26.5014 26.3209 26.4979 26.2164C26.4961 26.1441 26.5054 26.0719 26.5255 26.0024C26.7728 25.1302 27.2279 24.3856 27.9051 23.78L27.9526 23.7556C28.2747 24.6567 27.9024 25.6461 27.0661 26.1253Z" fill="#CB6699"/>
</svg>
