<svg width="38" height="38" viewBox="0 0 38 38" fill="none" xmlns="http://www.w3.org/2000/svg">
<path d="M15.61 20.1332C15.61 20.1332 14.635 20.7005 16.305 20.8923C18.3279 21.1232 19.3619 21.09 21.5908 20.6687C21.5908 20.6687 22.1783 21.036 22.9965 21.3542C17.9983 23.4956 11.6844 21.2301 15.61 20.1332ZM14.9987 17.3381C14.9987 17.3381 13.905 18.1483 15.5761 18.321C17.7374 18.544 19.4435 18.5624 22.398 17.9936C22.398 17.9936 22.8056 18.408 23.4478 18.634C17.4058 20.4015 10.6759 18.7732 14.9987 17.3381V17.3381Z" fill="#0074BD"/>
<path d="M20.1474 12.5967C21.3797 14.0152 19.8244 15.2905 19.8244 15.2905C19.8244 15.2905 22.9514 13.6764 21.5154 11.6544C20.1738 9.76956 19.1458 8.83352 24.7131 5.6047C24.7134 5.6047 15.9737 7.78673 20.1474 12.5967Z" fill="#EA2D2E"/>
<path d="M26.7579 22.2006C26.7579 22.2006 27.4799 22.7958 25.9629 23.256C23.0785 24.1297 13.9561 24.3933 11.4223 23.2907C10.512 22.8944 12.22 22.3446 12.757 22.2291C13.3172 22.1077 13.6372 22.13 13.6372 22.13C12.6243 21.4166 7.08967 23.5309 10.8261 24.1374C21.0161 25.7889 29.4007 23.3935 26.7579 22.2006V22.2006ZM16.0793 14.4421C16.0793 14.4421 11.4395 15.5444 14.4364 15.9452C15.7023 16.1144 18.224 16.0755 20.5746 15.8784C22.4951 15.7172 24.4224 15.3725 24.4224 15.3725C24.4224 15.3725 23.7458 15.6628 23.2557 15.9971C18.5431 17.2366 9.44122 16.6591 12.0617 15.3921C14.2773 14.3201 16.0793 14.4421 16.0793 14.4421V14.4421ZM24.4031 19.0941C29.1932 16.6057 26.9782 14.2141 25.4324 14.5362C25.0545 14.6152 24.8847 14.6834 24.8847 14.6834C24.8847 14.6834 25.0257 14.4626 25.2937 14.3679C28.3522 13.2932 30.7037 17.5388 24.3075 19.2203C24.3075 19.2203 24.3809 19.1538 24.4031 19.0941Z" fill="#0074BD"/>
<path d="M21.5157 0.389797C21.5157 0.389797 24.1683 3.04356 18.9994 7.12352C14.8544 10.3972 18.0542 12.2633 18.9976 14.3964C16.5781 12.2131 14.8034 10.2912 15.9938 8.5028C17.7421 5.87783 22.5857 4.60453 21.5157 0.389797V0.389797Z" fill="#EA2D2E"/>
<path d="M16.5505 25.8397C21.1473 26.1336 28.2085 25.6761 28.3756 23.5009C28.3756 23.5009 28.0544 24.3253 24.5759 24.9797C20.6518 25.7183 15.8113 25.6325 12.9411 25.1587C12.9411 25.1587 13.5289 25.6455 16.5505 25.8397V25.8397Z" fill="#0074BD"/>
<path d="M28.1633 29.7412H28.0232V29.6629H28.4003V29.7412H28.2607V30.1322H28.163L28.1633 29.7412V29.7412ZM28.9159 29.7608H28.9141L28.7752 30.1322H28.7111L28.573 29.7608H28.5715V30.1322H28.4789V29.6629H28.6146L28.7425 29.9951L28.8708 29.6629H29.0056V30.1322H28.9159V29.7608V29.7608ZM15.797 34.1516C15.3636 34.5275 14.9052 34.7388 14.4934 34.7388C13.9074 34.7388 13.5895 34.3867 13.5895 33.823C13.5895 33.2129 13.9297 32.7661 15.2929 32.7661H15.7967V34.1516H15.797ZM16.9937 35.5018V31.3227C16.9937 30.2542 16.3842 29.5495 14.9165 29.5495C14.0597 29.5495 13.3086 29.7614 12.6979 30.031L12.8737 30.7711C13.3546 30.5945 13.9766 30.4306 14.587 30.4306C15.433 30.4306 15.7967 30.7711 15.7967 31.4759V32.004H15.374C13.3193 32.004 12.3922 32.8011 12.3922 33.9999C12.3922 35.0327 13.0031 35.6197 14.1535 35.6197C14.8927 35.6197 15.4452 35.3145 15.9609 34.8677L16.0547 35.5021H16.9937V35.5018V35.5018ZM20.9873 35.5018H19.4949L17.6985 29.6566H19.0021L20.1171 33.2485L20.365 34.3277C20.9279 32.7667 21.3269 31.182 21.5264 29.6569H22.7944C22.455 31.581 21.8435 33.6938 20.9873 35.5018V35.5018ZM26.7134 34.1516C26.2785 34.5275 25.8198 34.7388 25.4095 34.7388C24.8229 34.7388 24.5053 34.3867 24.5053 33.823C24.5053 33.2129 24.8464 32.7661 26.2081 32.7661H26.7131V34.1516H26.7134ZM27.9107 35.5018V31.3227C27.9107 30.2542 27.2994 29.5495 25.8329 29.5495C24.9752 29.5495 24.2244 29.7614 23.6137 30.031L23.7898 30.7711C24.2707 30.5945 24.8936 30.4306 25.5039 30.4306C26.3488 30.4306 26.7134 30.7711 26.7134 31.4759V32.004H26.2907C24.2354 32.004 23.3085 32.8011 23.3085 33.9999C23.3085 35.0327 23.9189 35.6197 25.069 35.6197C25.8085 35.6197 26.3601 35.3145 26.8773 34.8677L26.9717 35.5021H27.9107V35.5018V35.5018ZM11.08 36.4951C10.7395 36.9936 10.1879 37.3881 9.58461 37.6105L8.99413 36.9143C9.45339 36.6786 9.84675 36.2983 10.0299 35.9438C10.1879 35.6283 10.2535 35.2224 10.2535 34.2514V27.577H11.5253V34.1596C11.5253 35.4585 11.422 35.9836 11.08 36.4951Z" fill="#EA2D2E"/>
</svg>
