<svg width="38" height="38" viewBox="0 0 38 38" fill="none" xmlns="http://www.w3.org/2000/svg">
<path d="M4.41958 5.43756L5.22708 6.78033L5.97134 8.02186C6.35758 8.66608 6.74381 9.3103 7.12945 9.95452L7.91973 11.2726L9.0722 13.1919L10.4821 15.5479C10.8885 16.2263 11.2958 16.9044 11.7028 17.5824L11.7574 17.6617C11.8165 17.6801 11.8634 17.6644 11.9121 17.6528C12.4486 17.5239 12.985 17.396 13.5215 17.268C14.3916 17.0602 15.2617 16.853 16.1316 16.6449L17.4948 16.3189C18.3742 16.1087 19.2541 15.8991 20.1338 15.6884C21.0232 15.4758 21.912 15.262 22.8012 15.0489C23.2507 14.9411 23.7001 14.8337 24.1499 14.7265L26.76 14.1042L29.6026 13.4274L29.7561 13.3858L29.7142 13.3027C29.4562 12.9369 29.1971 12.5718 28.9385 12.2063L28.1722 11.1215L27.3529 9.96431L26.5694 8.85489L25.7934 7.75853L24.9915 6.62566L24.206 5.51802L23.7916 4.93347C23.7279 4.84432 23.6782 4.74602 23.644 4.64194C23.5624 4.38781 23.6556 4.21889 23.8037 4.09391C23.8991 4.01308 24.0103 3.95312 24.1303 3.91786C24.2965 3.86662 24.4651 3.82382 24.6356 3.78961C24.9773 3.72519 25.3211 3.67027 25.6642 3.61327C26.0514 3.54884 26.4388 3.48739 26.8265 3.42356C27.0714 3.38319 27.3164 3.34073 27.5616 3.29917L28.5612 3.13084C28.8846 3.07653 29.208 3.0228 29.5316 2.96964L30.5909 2.79656L31.3262 2.67277C31.6053 2.62616 31.885 2.57955 32.1643 2.53383C32.5129 2.47712 32.8608 2.41983 33.2096 2.3652C33.4168 2.33284 33.625 2.32127 33.831 2.38064C33.9857 2.42547 34.1261 2.49791 34.2573 2.59023L34.4384 2.7167C34.4565 2.67484 34.4304 2.65228 34.4185 2.62823C34.161 2.10392 33.7963 1.6395 33.348 1.26498C32.9315 0.915221 32.4499 0.651282 31.931 0.488359C31.6222 0.390391 31.3049 0.344969 30.9813 0.320625L30.8224 0.296875H7.29155L7.16419 0.317359C6.88097 0.339625 6.6025 0.381781 6.32848 0.456891C5.73639 0.61814 5.18831 0.910904 4.72506 1.31337C4.44918 1.5499 4.20608 1.82216 4.00217 2.12295C3.685 2.58689 3.46709 3.11134 3.36211 3.66344L3.49897 3.90183C3.80564 4.41423 4.11261 4.92575 4.41958 5.43756V5.43756ZM5.9755 31.5106C6.26347 31.6213 6.56094 31.6991 6.86791 31.7368L7.17873 31.7508C7.22712 31.757 7.27373 31.7656 7.32123 31.7656H16.9067C16.8913 31.7656 16.8773 31.7214 16.8601 31.6914C16.4828 31.0478 16.1019 30.416 15.729 29.77C15.26 28.9573 14.7944 28.1426 14.3322 27.3259C13.8382 26.4519 13.3487 25.5773 12.8582 24.7009C12.3925 23.8681 11.9276 23.0349 11.4635 22.2012C11.1833 21.6971 10.9045 21.193 10.6249 20.6886L10.55 20.5734L10.4141 20.6005C10.1445 20.6699 9.87555 20.7403 9.60628 20.8109C9.23162 20.9095 8.85756 21.0098 8.48261 21.1078C7.64127 21.3269 6.79962 21.5445 5.95828 21.763C5.10239 21.9851 4.26491 22.2077 3.40842 22.4289C3.35647 22.4426 3.5625 22.4473 3.26562 22.4562V27.7718C3.5625 27.8026 3.306 27.859 3.31253 27.9134C3.33212 28.0707 3.33777 28.2292 3.36567 28.3854C3.46639 28.9595 3.69176 29.5045 4.02592 29.982C4.51992 30.6921 5.16948 31.2001 5.9755 31.5106V31.5106ZM4.15803 19.5198L7.12916 18.8142L8.43422 18.5057C8.65153 18.454 8.87003 18.4045 9.08556 18.3463C9.27734 18.2943 9.30139 18.2308 9.20253 18.0574C9.05973 17.8069 8.91456 17.5581 8.76969 17.3087L7.49669 15.1169L6.22398 12.9245L4.92842 10.694L3.8193 8.78602L3.35825 7.96041C3.32856 7.90994 3.5628 7.85027 3.26592 7.82355V19.7386C3.26592 19.7306 3.32648 19.7238 3.36478 19.7146L4.15803 19.5198V19.5198ZM34.6385 28.0366C34.2502 28.1746 33.8622 28.3136 33.4738 28.4525C32.5901 28.7692 31.7064 29.0861 30.8227 29.4031C30.3323 29.5791 29.8419 29.7573 29.3505 29.9327C28.3498 30.2902 27.3484 30.6461 26.3471 31.0027C25.7667 31.2093 25.1863 31.396 24.6065 31.6035C24.4477 31.6608 24.2909 31.7656 24.1336 31.7656H30.7928L30.9365 31.752C31.1048 31.7458 31.2726 31.7279 31.4385 31.6982C32.1115 31.5781 32.7435 31.2907 33.2764 30.8625C33.6895 30.5337 34.0359 30.1291 34.2971 29.6703C34.5702 29.1935 34.7323 28.682 34.8101 28.1405C34.8169 28.0939 34.8314 28.0431 34.7923 27.9947C34.7376 27.9906 34.6887 28.0185 34.6385 28.0366V28.0366ZM34.0664 19.0944C33.7725 18.6927 33.4786 18.2917 33.1853 17.8897C32.7809 17.3348 32.3769 16.7794 31.9731 16.2245C31.809 15.9992 31.6427 15.7756 31.4821 15.5479C31.434 15.4794 31.3788 15.4612 31.3037 15.4814L31.2606 15.4939L29.029 16.0351L27.6964 16.3584L25.0892 16.9916L22.5102 17.6183C21.6167 17.8348 20.7231 18.0506 19.8301 18.2673C18.951 18.4808 18.0723 18.6948 17.1935 18.9086L14.6437 19.5275C14.1945 19.6365 13.7456 19.7452 13.2967 19.855C13.2305 19.871 13.1593 19.8749 13.0892 19.9283L13.1492 20.0426C13.5256 20.6928 13.9018 21.3426 14.2791 21.9922C14.706 22.7279 15.1335 23.4632 15.5619 24.198C16.033 25.0055 16.5054 25.8127 16.9774 26.6202C17.2484 27.0839 17.518 27.5485 17.7914 28.011C18.0948 28.5251 18.4009 29.0376 18.71 29.5483C18.8026 29.7012 18.9077 29.8469 19.0137 29.9906C19.0849 30.0865 19.1731 30.1684 19.277 30.2311C19.3839 30.2958 19.4996 30.316 19.6211 30.2887C19.684 30.2744 19.7455 30.2536 19.8063 30.2326L20.0302 30.1497C20.8436 29.8713 21.657 29.5931 22.4714 29.3158C23.1064 29.0994 23.742 28.8845 24.3776 28.6695C25.0085 28.4558 25.6396 28.2426 26.2705 28.0298L28.1494 27.3953C28.7897 27.1789 29.4301 26.9625 30.0705 26.7455C30.8563 26.4789 31.6421 26.2111 32.4282 25.9451C33.1862 25.6886 33.9444 25.4336 34.7029 25.178C34.7492 25.1622 34.8006 25.1557 34.8392 25.1046L34.8439 24.9942C34.8439 23.422 34.8436 21.8491 34.8457 20.2766C34.8473 20.1973 34.8215 20.1199 34.7727 20.0575C34.5349 19.7377 34.3012 19.4156 34.0664 19.0944V19.0944ZM33.9361 4.27827C33.7594 4.05472 33.5347 3.98377 33.2595 4.05561C33.1396 4.08708 33.0164 4.10667 32.8943 4.12923C32.4933 4.20256 32.0925 4.2747 31.6914 4.34744C31.1048 4.45402 30.5184 4.56178 29.9315 4.66717C29.4672 4.75089 29.002 4.83283 28.5374 4.91447L26.6727 5.24073C26.5944 5.25439 26.5154 5.26805 26.4403 5.29209C26.3304 5.32742 26.2984 5.3963 26.3485 5.49961C26.3898 5.58392 26.4409 5.66467 26.4961 5.74067C26.8814 6.27208 27.2692 6.8023 27.6563 7.33252C28.1901 8.06372 28.7244 8.79492 29.2585 9.52583C29.7104 10.1442 30.1628 10.7626 30.6152 11.3807C30.9706 11.8667 31.3262 12.3521 31.6819 12.8378L31.7523 12.9227C32.7756 12.6694 33.7974 12.4171 34.8368 12.1603L34.8439 12.0006C34.8439 9.8607 34.8436 7.72113 34.8457 5.58155C34.8457 5.48714 34.8225 5.41114 34.7635 5.33633C34.5037 5.00888 34.2493 4.67756 33.9925 4.34773L33.9361 4.27827ZM34.7658 14.6457C34.2992 14.7577 33.831 14.8645 33.353 14.991C33.4038 15.081 34.7142 16.85 34.7905 16.9338L34.8386 16.9602L34.8439 16.8524V16.1073C34.8445 15.6753 34.8457 15.243 34.8445 14.8111C34.8445 14.7582 34.8591 14.7021 34.8231 14.6487L34.7658 14.6457ZM3.83859 37.7031V32.6168H4.91714V36.8125H6.98012V37.7031H3.83859ZM10.9775 37.7031L10.6088 36.4925H8.75455L8.38553 37.7031H7.22356L9.01876 32.596H10.3372L12.1395 37.7031H10.9775V37.7031ZM10.3511 35.5879C10.0103 34.4909 9.81825 33.8705 9.7755 33.7265C9.73275 33.5825 9.70187 33.4691 9.68317 33.3857C9.60658 33.6825 9.38748 34.4167 9.02559 35.5879H10.3511V35.5879ZM13.8581 35.7515V37.7031H12.7796V32.6168H14.2616C14.9527 32.6168 15.4642 32.7426 15.7958 32.9941C16.1274 33.2455 16.2934 33.6279 16.2934 34.1403C16.2934 34.4396 16.2112 34.7056 16.0464 34.9386C15.8816 35.1717 15.6486 35.3542 15.3472 35.4867C16.1126 36.6302 16.6113 37.3688 16.8432 37.7028H15.6465L14.4323 35.7512H13.8581V35.7515ZM13.8581 34.8748H14.2061C14.5469 34.8748 14.7986 34.8181 14.961 34.7044C15.1234 34.5907 15.2045 34.4123 15.2045 34.1685C15.2045 33.9275 15.1216 33.7556 14.9557 33.6538C14.7897 33.5519 14.5329 33.5006 14.185 33.5006H13.8581V34.8748V34.8748ZM20.5969 37.7031L20.2282 36.4925H18.3739L18.0049 37.7031H16.8429L18.6381 32.596H19.9565L21.7589 37.7031H20.5969ZM19.9708 35.5879C19.63 34.4909 19.4379 33.8705 19.3951 33.7265C19.3524 33.5825 19.3215 33.4691 19.3028 33.3857C19.2262 33.6825 19.0071 34.4167 18.6452 35.5879H19.9708V35.5879ZM25.3006 32.6168H26.3895L24.6602 37.7031H23.4843L21.7589 32.6168H22.8478L23.8046 35.6434C23.8581 35.8221 23.913 36.0302 23.97 36.268C24.027 36.5058 24.0623 36.6709 24.076 36.7638C24.1015 36.5504 24.1885 36.1769 24.3369 35.6437L25.3006 32.6168V32.6168ZM29.9588 37.7031H27.0296V32.6168H29.9588V33.5006H28.1081V34.6174H29.8303V35.5012H28.1081V36.8125H29.9588V37.7031ZM31.0199 37.7031V32.6168H32.0984V36.8125H34.1614V37.7031H31.0199Z" fill="#FD4F31"/>
</svg>
