<svg width="38" height="38" viewBox="0 0 38 38" fill="none" xmlns="http://www.w3.org/2000/svg">
<path fill-rule="evenodd" clip-rule="evenodd" d="M25.905 29.7288C25.9552 29.6323 26.0033 29.5471 26.0442 29.4589C26.0701 29.4025 26.1099 29.3912 26.166 29.3927C26.5023 29.4022 26.8387 29.4126 27.1753 29.4159C27.4612 29.4188 27.7477 29.4135 28.0339 29.4102C28.3563 29.4064 28.6787 29.3894 29.0008 29.3986C29.4298 29.4111 29.8478 29.4951 30.2358 29.686C30.6992 29.9143 31.0499 30.262 31.2888 30.72C31.4391 31.0105 31.5329 31.3268 31.5652 31.6522C31.6163 32.1296 31.5827 32.596 31.4313 33.0526C31.2437 33.6184 30.8875 34.0516 30.3926 34.376C30.0117 34.6257 29.594 34.7733 29.1463 34.8576C28.6725 34.9469 28.1972 34.9181 27.7219 34.9196C27.2006 34.9217 26.6796 34.9104 26.1582 34.9045C26.0671 34.9036 26.054 34.8864 26.0781 34.7994L26.1004 34.7192C26.1511 34.5595 26.1784 34.5524 26.3405 34.5257C26.4554 34.5076 26.5653 34.4658 26.6632 34.4031C26.7179 34.3668 26.7404 34.2724 26.7618 34.1997C26.7802 34.1362 26.7811 34.0664 26.7817 33.9993C26.7891 32.9825 26.7968 31.966 26.801 30.9498C26.8021 30.6928 26.7957 30.4358 26.7817 30.1791C26.7716 29.9995 26.6757 29.8766 26.462 29.8342C26.2957 29.8012 26.1283 29.7757 25.9611 29.7463L25.905 29.7288V29.7288ZM30.6776 32.1907C30.655 31.9883 30.644 31.784 30.6078 31.5845C30.5211 31.1057 30.3115 30.6886 29.9434 30.3617C29.3482 29.8336 28.6315 29.7522 27.8804 29.8152C27.7094 29.8294 27.6726 29.8879 27.6699 30.0636C27.6658 30.313 27.6616 30.5624 27.6613 30.8118C27.6601 31.6026 27.6601 32.3935 27.6613 33.1844C27.6616 33.4094 27.664 33.6345 27.6705 33.8589C27.6777 34.0887 27.7611 34.2831 27.9861 34.3722C28.3409 34.5126 28.714 34.5292 29.0863 34.4719C29.681 34.3808 30.0969 34.0343 30.376 33.5151C30.5968 33.103 30.6592 32.6533 30.6776 32.1907V32.1907ZM32.1231 34.8837C32.1159 34.7605 32.1664 34.6587 32.2287 34.5652C32.2457 34.5399 32.3039 34.5411 32.3439 34.5331L32.6842 34.4657C32.8044 34.4402 32.8676 34.3594 32.8845 34.2416C32.8958 34.1638 32.9065 34.0851 32.9074 34.0064C32.9155 33.3839 32.9213 32.7614 32.9249 32.1388C32.9279 31.5154 32.9255 30.8919 32.9255 30.2685L32.9228 30.1494C32.9107 29.949 32.8139 29.8451 32.615 29.8157L32.1836 29.7501C32.1305 29.743 32.1112 29.7175 32.1305 29.6703C32.1637 29.5898 32.1955 29.5064 32.2424 29.434C32.2599 29.4073 32.319 29.3969 32.3588 29.3978C32.5648 29.4007 32.7708 29.4162 32.9769 29.4159L34.7703 29.4052C35.1159 29.4049 35.4495 29.4651 35.7595 29.6305C36.1006 29.8122 36.2915 30.0933 36.3461 30.4763C36.4031 30.8786 36.2811 31.2176 35.9872 31.4869C35.8664 31.5979 35.7099 31.6703 35.5698 31.7606L35.5241 31.7891C35.6541 31.8369 35.7779 31.8781 35.8984 31.9274C36.2511 32.072 36.5317 32.2979 36.6801 32.6586C36.7974 32.9433 36.7974 33.2402 36.7279 33.5353C36.6198 33.9972 36.3155 34.3045 35.9198 34.537C35.5484 34.7552 35.1464 34.8822 34.7183 34.9036C34.3235 34.9235 33.9269 34.9161 33.5311 34.9205L33.302 34.9217C32.9205 34.9129 32.5392 34.9034 32.1578 34.8932L32.1231 34.8837V34.8837ZM33.7669 33.076H33.7707C33.7707 33.2714 33.768 33.4667 33.7716 33.6621C33.774 33.7885 33.7695 33.9186 33.7968 34.0403C33.8378 34.2223 33.9209 34.3864 34.1252 34.4387C34.3982 34.5104 34.6835 34.523 34.9618 34.4755C35.3112 34.4146 35.59 34.2395 35.7429 33.9067C35.8563 33.6594 35.8732 33.3972 35.8343 33.1295C35.7826 32.7768 35.5953 32.5209 35.2839 32.3531C35.0796 32.243 34.8617 32.1756 34.6296 32.1667C34.3695 32.1569 34.1092 32.1563 33.8491 32.1483C33.7761 32.1462 33.766 32.1833 33.7663 32.2433C33.7677 32.5206 33.7669 32.7982 33.7669 33.076V33.076ZM34.3205 31.7475C34.4627 31.7404 34.6236 31.7383 34.7837 31.7223C35.09 31.6917 35.3059 31.5376 35.4184 31.2446C35.4757 31.0959 35.4733 30.9427 35.4748 30.788C35.4792 30.3852 35.2441 30.055 34.8614 29.9185C34.566 29.8131 34.2615 29.8113 33.9551 29.8196C33.831 29.8229 33.7755 29.8772 33.7737 30.0022L33.7553 31.6317C33.7544 31.6965 33.7823 31.7244 33.8452 31.7264L34.3205 31.7475V31.7475Z" fill="#94795D"/>
<path fill-rule="evenodd" clip-rule="evenodd" d="M3.12996 34.5705L3.10828 34.8507C2.90641 34.8507 2.72027 34.8493 2.53413 34.8513C2.18352 34.8549 1.83291 34.8605 1.482 34.8656L1.44816 34.8677C1.39799 34.8617 1.30685 34.8617 1.30447 34.8469C1.28963 34.7635 1.29438 34.6759 1.29824 34.5895C1.29853 34.5797 1.33268 34.5672 1.35257 34.5625L1.62539 34.5016C1.7955 34.4574 1.85547 34.3841 1.86349 34.2083C1.87269 34.0103 1.88189 33.812 1.88278 33.614C1.88546 33.1265 1.88249 32.6396 1.88457 32.1522C1.88486 32.0382 1.84538 31.9532 1.7391 31.9069C1.61281 31.8509 1.48563 31.7968 1.35761 31.7448C1.29705 31.7205 1.21838 31.7071 1.2255 31.6258C1.23263 31.543 1.30893 31.5213 1.38077 31.505C1.67824 31.437 1.976 31.3708 2.27258 31.2983C2.36818 31.2749 2.45961 31.2354 2.57391 31.1956C2.57985 31.2574 2.59083 31.3162 2.58964 31.3749L2.57213 31.6543C2.57183 31.6858 2.58816 31.7279 2.61161 31.7454C2.62586 31.7564 2.67366 31.7365 2.69741 31.7181C2.95094 31.5252 3.21932 31.3586 3.52539 31.2615C3.9995 31.111 4.40652 31.2505 4.69152 31.6593C4.79186 31.8033 4.79216 31.8033 4.93139 31.7027C5.17038 31.529 5.42035 31.3758 5.7 31.2749C6.31394 31.0531 6.90383 31.3346 7.11729 31.953C7.19507 32.1774 7.22475 32.4093 7.22416 32.6462L7.21852 34.219C7.21822 34.3487 7.26127 34.4227 7.38477 34.463C7.52341 34.5085 7.6671 34.5396 7.82325 34.5806L7.78703 34.851C7.6095 34.851 7.44622 34.8499 7.28294 34.8513C6.88394 34.8549 6.48494 34.857 6.08624 34.8662C6.01677 34.868 5.99866 34.8507 5.9951 34.7857C5.98352 34.5776 5.98174 34.5779 6.17768 34.531L6.24358 34.5141C6.43507 34.4618 6.49889 34.4031 6.50038 34.2089C6.50483 33.6514 6.51641 33.0924 6.48821 32.536C6.45882 31.9589 6.00074 31.6516 5.44143 31.7995C5.26091 31.8489 5.09089 31.9308 4.93971 32.0411C4.88775 32.0782 4.87796 32.121 4.88211 32.186C4.89785 32.4318 4.90764 32.6779 4.90972 32.924C4.91328 33.3548 4.90794 33.7856 4.90972 34.2166C4.91032 34.3912 4.96999 34.458 5.14247 34.4984L5.39868 34.5574L5.44618 34.5681C5.44974 34.6501 5.453 34.732 5.44914 34.8139C5.44677 34.8653 5.40699 34.8698 5.36246 34.8689C5.11338 34.8626 4.864 34.8543 4.61493 34.8549C4.31182 34.8555 4.009 34.8641 3.70619 34.8695H3.63494C3.63494 34.7825 3.63078 34.6993 3.63791 34.6165C3.63939 34.5966 3.67443 34.5687 3.69847 34.5625L3.99713 34.4992C4.12389 34.4681 4.18446 34.4031 4.19158 34.2742C4.22543 33.6775 4.24977 33.0805 4.19366 32.4841C4.17998 32.3663 4.1473 32.2515 4.09688 32.1441C3.94399 31.8063 3.59991 31.6653 3.20299 31.7668C3.01447 31.8149 2.84436 31.9013 2.68346 32.0102C2.64837 32.0319 2.61955 32.0623 2.59986 32.0985C2.58017 32.1347 2.5703 32.1754 2.57124 32.2166C2.57124 32.8118 2.57332 33.407 2.5751 34.002L2.57836 34.2315C2.58193 34.3915 2.64991 34.4758 2.80874 34.5102C2.91086 34.5334 3.01418 34.5491 3.12996 34.5705V34.5705Z" fill="#50382B"/>
<path fill-rule="evenodd" clip-rule="evenodd" d="M21.0784 31.2565C21.1244 31.4803 21.1235 31.6816 20.9591 31.8342C20.7958 31.9859 20.5892 31.9348 20.3876 31.901C20.4063 32.0073 20.4271 32.0975 20.4372 32.189C20.5105 32.8685 20.2181 33.3729 19.5878 33.6612C19.3497 33.7698 19.0971 33.8102 18.8391 33.831C18.7108 33.8411 18.5986 33.939 18.5865 34.0444C18.574 34.1513 18.6411 34.2612 18.7753 34.2932C18.9335 34.3309 19.0986 34.3416 19.261 34.3603C19.6095 34.4001 19.9619 34.4182 20.3063 34.4805C20.827 34.5744 21.1176 35.0289 21.0259 35.552C20.9442 36.0175 20.6747 36.3562 20.2988 36.616C19.6656 37.0548 18.9709 37.183 18.2311 36.9592C17.808 36.8309 17.5097 36.5527 17.4067 36.1027C17.355 35.8773 17.4099 35.6734 17.5795 35.5205C17.781 35.3394 18.0004 35.1779 18.2115 35.0069L18.2798 34.9383L18.2014 34.8834C17.9862 34.7813 17.814 34.6415 17.7472 34.3986C17.7243 34.3164 17.7481 34.2623 17.8178 34.2202C17.9366 34.1486 18.0548 34.0759 18.172 34.002C18.2272 33.9675 18.2819 33.9319 18.3332 33.8921C18.4033 33.8387 18.397 33.7989 18.3133 33.768C18.1186 33.6962 17.9455 33.592 17.8113 33.4317C17.5872 33.1642 17.5236 32.8457 17.542 32.5093C17.5708 31.9838 17.8561 31.6377 18.3199 31.415C18.8712 31.1505 19.4242 31.1339 19.9862 31.3749C20.194 31.464 20.4131 31.483 20.6361 31.4676C20.8026 31.4557 20.9481 31.3928 21.0784 31.2565V31.2565ZM19.0469 35.0212C18.6331 35.0176 18.5033 35.0687 18.2605 35.316C17.9885 35.5932 17.99 35.9777 18.2614 36.2562C18.4674 36.4672 18.7245 36.5661 19.0104 36.5958C19.3444 36.6302 19.6733 36.6163 19.9767 36.4491C20.3003 36.2701 20.4612 35.9376 20.3885 35.6027C20.3282 35.3263 20.1246 35.1999 19.8767 35.1271C19.5946 35.0446 19.3031 35.0289 19.0469 35.0212V35.0212ZM18.2341 32.3766C18.2492 32.4915 18.2554 32.6079 18.281 32.7204C18.3472 33.0119 18.4739 33.2681 18.764 33.3978C19.1045 33.5507 19.5394 33.4851 19.6885 33.0072C19.7903 32.6891 19.7784 32.3455 19.6549 32.0352C19.6026 31.8933 19.5084 31.7708 19.3848 31.6837C19.0891 31.4774 18.5556 31.45 18.3383 31.906C18.2676 32.0542 18.24 32.2118 18.2341 32.3766V32.3766Z" fill="#4F382B"/>
<path fill-rule="evenodd" clip-rule="evenodd" d="M14.057 31.1832C14.068 31.2339 14.09 31.2915 14.0906 31.3494C14.0915 31.4595 14.0796 31.5697 14.0734 31.6798V31.7754L14.1666 31.7042C14.4219 31.494 14.6962 31.315 15.0156 31.2185C15.5922 31.0448 16.1681 31.3604 16.356 31.9476C16.4273 32.1709 16.4555 32.4003 16.4582 32.6337C16.4641 33.152 16.4677 33.6704 16.473 34.1887C16.4748 34.3749 16.4962 34.4081 16.6722 34.4618C16.7724 34.4918 16.8746 34.5145 16.978 34.5298C17.0347 34.5387 17.059 34.561 17.0561 34.6165L17.0567 34.6676C17.0546 34.8822 17.0397 34.892 16.8316 34.8914C16.3335 34.8905 15.8356 34.8935 15.3375 34.8977C15.189 34.8988 15.1887 34.9033 15.1739 34.7566L15.1709 34.6723C15.1801 34.5459 15.1831 34.547 15.3075 34.5286C15.3912 34.5162 15.4743 34.4969 15.556 34.4755C15.64 34.4538 15.6803 34.3918 15.6916 34.3087C15.6973 34.2665 15.7047 34.2243 15.7044 34.1822C15.6973 33.6157 15.7065 33.0487 15.6756 32.4832C15.6507 32.0257 15.3015 31.7532 14.8423 31.7843C14.6209 31.7997 14.4081 31.876 14.2274 32.0049C14.1048 32.0907 14.0802 32.2145 14.0808 32.3478C14.0832 32.8774 14.0882 33.407 14.0938 33.937C14.095 34.053 14.0983 34.1691 14.1093 34.2843C14.1209 34.4102 14.1651 34.461 14.2886 34.4883C14.4067 34.5144 14.5273 34.5295 14.6535 34.5506L14.6641 34.648C14.6683 34.8751 14.6445 34.892 14.424 34.8911C13.9089 34.889 13.3938 34.8923 12.879 34.898C12.798 34.8991 12.7635 34.8736 12.7656 34.7946L12.7644 34.7608C12.7511 34.5562 12.757 34.5485 12.9506 34.5153L13.042 34.4969C13.2516 34.4497 13.3053 34.3939 13.3083 34.181C13.3181 33.5068 13.3217 32.8329 13.3285 32.1587C13.3294 32.0619 13.2929 31.9868 13.2026 31.9467C13.076 31.8912 12.9486 31.8374 12.8205 31.7852C12.7499 31.7561 12.6691 31.7377 12.6665 31.64C12.6647 31.5712 12.7383 31.5103 12.839 31.4898C13.0411 31.4489 13.2451 31.4147 13.4449 31.3645C13.6438 31.315 13.8391 31.2485 14.057 31.1832Z" fill="#4F372B"/>
<path fill-rule="evenodd" clip-rule="evenodd" d="M25.1943 32.9442C25.1848 33.5739 25.0212 34.083 24.5759 34.4651C24.0118 34.9499 23.1319 35.1147 22.4126 34.7522C22.1056 34.5975 21.88 34.3603 21.733 34.0525C21.5077 33.5789 21.4513 33.0811 21.5689 32.571C21.6852 32.0667 21.9907 31.7012 22.4479 31.4646C22.9182 31.2215 23.4133 31.1265 23.9355 31.2541C24.5961 31.4153 25.0708 31.9538 25.1652 32.6396C25.1821 32.7599 25.1887 32.8816 25.1943 32.9442V32.9442ZM24.4293 33.2853L24.4037 33.2824C24.4037 33.223 24.407 33.1636 24.4031 33.1042C24.3815 32.7343 24.2983 32.3819 24.084 32.0723C23.8806 31.779 23.6036 31.6059 23.2432 31.5807C22.8398 31.5522 22.5007 31.7778 22.3817 32.1899C22.203 32.8085 22.2635 33.4115 22.5776 33.9782C22.7145 34.2252 22.9173 34.4075 23.1889 34.5034C23.7212 34.6907 24.1932 34.4482 24.3319 33.9031C24.3829 33.7018 24.3978 33.4914 24.4293 33.2853Z" fill="#4F382B"/>
<path fill-rule="evenodd" clip-rule="evenodd" d="M12.1181 32.9929C12.1072 33.4448 12.0006 33.8625 11.7215 34.2255C11.4226 34.6144 11.0117 34.8223 10.5444 34.9098C9.99192 35.0131 9.47299 34.9193 9.02916 34.5485C8.81838 34.3722 8.67439 34.1463 8.57939 33.8892C8.42353 33.4676 8.38464 33.0357 8.48053 32.5954C8.58296 32.1242 8.84895 31.7641 9.26131 31.5225C9.7381 31.2437 10.2526 31.1193 10.8021 31.2446C11.5087 31.4061 11.9166 31.8666 12.0674 32.5636C12.0977 32.7043 12.1018 32.8498 12.1181 32.9929V32.9929ZM11.3445 33.291L11.324 33.288V33.2031C11.3124 32.7887 11.2314 32.3938 10.9841 32.0494C10.8009 31.7938 10.5557 31.6335 10.2413 31.5887C9.72889 31.5157 9.39402 31.8197 9.28299 32.2326C9.13811 32.772 9.18353 33.3049 9.40767 33.8164C9.5475 34.1353 9.76838 34.3838 10.1077 34.5043C10.6367 34.6922 11.1159 34.4434 11.2498 33.9005C11.2991 33.7018 11.3139 33.4946 11.3445 33.291V33.291Z" fill="#4F372B"/>
<path fill-rule="evenodd" clip-rule="evenodd" d="M24.4512 9.95837C24.8155 11.0114 25.0773 12.0864 25.1637 13.2003C25.2706 14.5825 25.2219 15.9553 24.9304 17.3146L24.893 17.4233C24.8015 17.4236 24.7083 17.412 24.619 17.426C23.864 17.5447 23.1099 17.6676 22.3556 17.7899C21.5757 17.9164 20.7952 18.0378 20.0168 18.1726C19.741 18.2201 19.3996 18.1634 19.2883 18.5446L19.2348 18.5627L19.2725 16.2833L19.2342 10.7834L19.5976 10.721C20.1917 10.624 20.7857 10.5251 21.3806 10.4304C22.0902 10.3179 22.8003 10.208 23.5104 10.0982C23.8239 10.0501 24.1377 10.0053 24.4512 9.95837V9.95837Z" fill="#439934"/>
<path fill-rule="evenodd" clip-rule="evenodd" d="M18.4849 25.208C18.1017 24.8784 17.705 24.5634 17.3378 24.2167C15.3612 22.3523 13.9151 20.1575 13.2029 17.5115C13.0067 16.7835 12.8761 16.0434 12.8339 15.2911C12.8042 14.7645 12.7618 14.2334 12.7992 13.7094C12.898 12.3162 13.0996 10.9363 13.5081 9.59411L13.5307 9.56294C13.5705 9.61578 13.6275 9.66269 13.6476 9.72236C14.0466 10.8968 14.4424 12.0724 14.8363 13.2489C16.074 16.9453 17.3102 20.6426 18.5499 24.3384C18.5743 24.4105 18.6369 24.4696 18.682 24.5346L18.4849 25.208V25.208Z" fill="#45A538"/>
<path fill-rule="evenodd" clip-rule="evenodd" d="M24.4512 9.95837C24.1374 10.005 23.8236 10.0501 23.5104 10.0982C22.8003 10.208 22.0902 10.3179 21.3806 10.4304C20.786 10.5248 20.1919 10.6237 19.5976 10.721L19.2342 10.7834L19.2313 10.5465C19.2191 10.3517 19.1989 10.157 19.1962 9.96223L19.1556 6.23527C19.1461 5.45775 19.1318 4.68023 19.1161 3.90302C19.1081 3.41995 19.0941 2.93699 19.0742 2.45427C19.0623 2.19509 19.0205 1.93711 19.0039 1.67794C18.9941 1.52891 19.0071 1.37869 19.0104 1.22906C19.1956 1.58798 19.377 1.94958 19.5673 2.30583C19.8681 2.869 20.3475 3.28403 20.7795 3.73677C22.4853 5.52722 23.6963 7.60772 24.4512 9.95837V9.95837Z" fill="#46A037"/>
<path fill-rule="evenodd" clip-rule="evenodd" d="M19.2351 18.5627L19.2886 18.5446C19.3999 18.1634 19.7413 18.2201 20.0171 18.1726C20.7955 18.0378 21.576 17.9164 22.3559 17.7899C23.1102 17.6679 23.8643 17.545 24.6192 17.426C24.7086 17.412 24.8018 17.4236 24.8933 17.4233C24.7522 17.9268 24.6412 18.4413 24.4622 18.9308C24.2588 19.486 24.013 20.0281 23.7521 20.5595C23.3612 21.3519 22.8775 22.0952 22.3113 22.7736C21.8761 23.2967 21.391 23.7809 20.905 24.2585C20.6361 24.5225 20.3196 24.7377 20.0245 24.9752L19.9479 24.923L19.6727 24.6878L19.388 24.0632C19.1935 23.3348 19.0873 22.5857 19.0718 21.8319L19.0772 21.7048L19.1161 21.1544C19.1288 20.9665 19.1461 20.7789 19.1541 20.591C19.1826 19.9153 19.2081 19.239 19.2351 18.5627V18.5627Z" fill="#409433"/>
<path fill-rule="evenodd" clip-rule="evenodd" d="M19.2351 18.5627C19.2084 19.239 19.1829 19.9156 19.1541 20.5918C19.1461 20.7801 19.1291 20.9677 19.1161 21.1553L18.9427 21.2209C18.5574 20.0866 18.1717 18.9641 17.7947 17.8389C17.171 15.9772 16.5549 14.1128 15.9321 12.2505C15.4291 10.7476 14.9227 9.24578 14.4127 7.74517C14.3886 7.67511 14.3204 7.61989 14.2729 7.55784L15.3832 5.51623C15.4215 5.58244 15.4716 5.64448 15.4957 5.71573C16.0093 7.23573 16.522 8.75603 17.0302 10.2778C17.6917 12.258 18.3487 14.239 19.0095 16.2195C19.0359 16.2984 19.0793 16.3715 19.1208 16.4602L19.2728 16.2833L19.2351 18.5627Z" fill="#4FAA41"/>
<path fill-rule="evenodd" clip-rule="evenodd" d="M14.2726 7.55784C14.3204 7.61989 14.3886 7.67511 14.4124 7.74517C14.9224 9.24576 15.4289 10.7476 15.9318 12.2505C16.5546 14.1128 17.1707 15.9772 17.7944 17.8389C18.1714 18.9641 18.5571 20.0863 18.9424 21.2209L19.1158 21.1553L19.0769 21.7057L19.0416 21.8325C18.9813 22.4348 18.9305 23.0384 18.8569 23.6396C18.8201 23.9409 18.7414 24.2366 18.6817 24.5346C18.6369 24.4696 18.574 24.4105 18.5496 24.3384C17.3096 20.6426 16.0737 16.9453 14.836 13.2489C14.4422 12.0726 14.046 10.8971 13.6473 9.72236C13.6272 9.66269 13.5702 9.61578 13.5304 9.56294L14.2726 7.55784V7.55784Z" fill="#4AA73C"/>
<path fill-rule="evenodd" clip-rule="evenodd" d="M19.2725 16.2833L19.1205 16.4602C19.079 16.3715 19.0356 16.2984 19.0092 16.2195C18.3484 14.239 17.6914 12.258 17.0299 10.2778C16.5211 8.75622 16.0096 7.23553 15.4954 5.71573C15.4713 5.64448 15.4212 5.58244 15.3829 5.51623L16.7559 3.71005C16.7993 3.76764 16.861 3.819 16.8833 3.88402C17.2645 5.00027 17.6421 6.11741 18.0179 7.23544C18.3688 8.27984 18.7144 9.32544 19.0695 10.3681C19.0932 10.4378 19.176 10.4871 19.2313 10.5465L19.2342 10.7834L19.2725 16.2833V16.2833Z" fill="#57AE47"/>
<path fill-rule="evenodd" clip-rule="evenodd" d="M19.2313 10.5465C19.1757 10.4874 19.0932 10.4381 19.0695 10.3681C18.7147 9.32544 18.3688 8.27984 18.0179 7.23544C17.6424 6.1174 17.2642 5.00025 16.8833 3.88402C16.861 3.819 16.7993 3.76764 16.7559 3.71005C17.2024 3.27275 17.635 2.81972 18.0996 2.40261C18.5125 2.03211 18.8444 1.63489 18.8599 1.04916L18.8925 0.932485L19.0101 1.22877C19.0071 1.37839 18.9938 1.52861 19.0036 1.67764C19.0205 1.93681 19.0623 2.1948 19.0739 2.45397C19.0956 2.93639 19.106 3.4197 19.1158 3.90272C19.1315 4.67994 19.1458 5.45745 19.1553 6.23497L19.1959 9.96194C19.1989 10.157 19.2194 10.3517 19.2313 10.5465V10.5465Z" fill="#60B24F"/>
<path fill-rule="evenodd" clip-rule="evenodd" d="M18.682 24.5343C18.7417 24.2363 18.8204 23.9406 18.8572 23.6393C18.9308 23.0384 18.9816 22.4345 19.0419 21.8322L19.057 21.8298L19.0718 21.8325C19.0873 22.5862 19.1935 23.3354 19.388 24.0638C19.3479 24.1166 19.2918 24.1633 19.2705 24.2226C19.1057 24.6875 18.9501 25.1563 18.7845 25.6209C18.7619 25.6844 18.6984 25.734 18.6541 25.7895L18.4846 25.2077L18.682 24.5343Z" fill="#A9AA88"/>
<path fill-rule="evenodd" clip-rule="evenodd" d="M18.6541 25.7898C18.6984 25.734 18.7619 25.6847 18.7845 25.6212C18.9501 25.1566 19.1057 24.6878 19.2705 24.2229C19.2915 24.1635 19.3479 24.1169 19.388 24.0641L19.6727 24.6887C19.6166 24.7683 19.5388 24.8404 19.5077 24.9292L18.9626 26.5299C18.94 26.5944 18.8637 26.6395 18.8121 26.6938L18.6541 25.7898V25.7898Z" fill="#B6B598"/>
<path fill-rule="evenodd" clip-rule="evenodd" d="M18.8121 26.6935C18.8634 26.6392 18.94 26.5941 18.9626 26.5296L19.5077 24.9289C19.5385 24.8401 19.6166 24.768 19.6727 24.6884L19.9482 24.9233C19.8152 25.0548 19.7413 25.2068 19.7858 25.3988L19.7021 25.6729C19.6641 25.7198 19.6089 25.7607 19.5902 25.8145C19.3999 26.3595 19.2185 26.9076 19.0267 27.4523C19.0024 27.5212 18.935 27.5755 18.8878 27.6367L18.8121 26.6935V26.6935Z" fill="#C2C1A7"/>
<path fill-rule="evenodd" clip-rule="evenodd" d="M18.8875 27.6364C18.935 27.5752 19.0024 27.5209 19.0264 27.452C19.2182 26.9073 19.3999 26.3592 19.5899 25.8142C19.6086 25.7604 19.6638 25.7198 19.7018 25.6726L19.5863 26.9301C19.5555 26.9657 19.5109 26.9969 19.4961 27.0382L19.1119 28.139C19.0849 28.2141 19.0333 28.2812 18.9929 28.3516C18.957 28.3047 18.8928 28.2592 18.8899 28.2105C18.8786 28.02 18.8866 27.8279 18.8875 27.6364V27.6364Z" fill="#CECDB7"/>
<path fill-rule="evenodd" clip-rule="evenodd" d="M18.9932 28.3519C19.0335 28.2815 19.0852 28.2144 19.1122 28.1393L19.4964 27.0385C19.5112 26.9969 19.556 26.966 19.5866 26.9304L19.5896 27.7557L19.3132 28.4644L18.9932 28.3519V28.3519Z" fill="#DBDAC7"/>
<path fill-rule="evenodd" clip-rule="evenodd" d="M19.3132 28.4644L19.5896 27.7557L19.6466 28.5941L19.3132 28.4644V28.4644Z" fill="#EBE9DC"/>
<path fill-rule="evenodd" clip-rule="evenodd" d="M19.7855 25.3988C19.7413 25.2071 19.8149 25.0551 19.9479 24.9233L20.0245 24.9755L19.7855 25.3988V25.3988Z" fill="#CECDB7"/>
<path fill-rule="evenodd" clip-rule="evenodd" d="M19.0718 21.8328L19.057 21.8301L19.0419 21.8325L19.0772 21.7057L19.0718 21.8328V21.8328Z" fill="#4FAA41"/>
</svg>
